<svg width="37" height="36" viewBox="0 0 37 36" fill="none" xmlns="http://www.w3.org/2000/svg">
<mask id="mask0_308_903" style="mask-type:luminance" maskUnits="userSpaceOnUse" x="2" y="2" width="33" height="32">
<path d="M34.8889 2H2V34H34.8889V2Z" fill="white"/>
</mask>
<g mask="url(#mask0_308_903)">
<g filter="url(#filter0_i_308_903)">
<path d="M29.4625 11.0926L21.5692 5.71927C19.4177 4.2526 16.1151 4.3326 14.0459 5.8926L7.18034 11.1059C5.80997 12.1459 4.72738 14.2793 4.72738 15.9593V25.1593C4.72738 28.5593 7.56404 31.3326 11.0585 31.3326H25.831C29.3255 31.3326 32.1622 28.5726 32.1622 25.1726V16.1326C32.1622 14.3326 30.9699 12.1193 29.4625 11.0926Z" fill="#EEEEEE"/>
</g>
<path d="M18.4445 27C17.8826 27 17.4167 26.5467 17.4167 26V22C17.4167 21.4533 17.8826 21 18.4445 21C19.0063 21 19.4722 21.4533 19.4722 22V26C19.4722 26.5467 19.0063 27 18.4445 27Z" fill="black"/>
</g>
<defs>
<filter id="filter0_i_308_903" x="4.72738" y="4.66895" width="27.4348" height="26.6641" filterUnits="userSpaceOnUse" color-interpolation-filters="sRGB">
<feFlood flood-opacity="0" result="BackgroundImageFix"/>
<feBlend mode="normal" in="SourceGraphic" in2="BackgroundImageFix" result="shape"/>
<feColorMatrix in="SourceAlpha" type="matrix" values="0 0 0 0 0 0 0 0 0 0 0 0 0 0 0 0 0 0 127 0" result="hardAlpha"/>
<feOffset/>
<feGaussianBlur stdDeviation="4"/>
<feComposite in2="hardAlpha" operator="arithmetic" k2="-1" k3="1"/>
<feColorMatrix type="matrix" values="0 0 0 0 1 0 0 0 0 1 0 0 0 0 1 0 0 0 0.25 0"/>
<feBlend mode="normal" in2="shape" result="effect1_innerShadow_308_903"/>
</filter>
</defs>
</svg>
