<svg width="22" height="22" viewBox="0 0 22 22" fill="none" xmlns="http://www.w3.org/2000/svg">
<rect width="22" height="22" rx="11" fill="black" fill-opacity="0.48"/>
<g clip-path="url(#clip0_351_4771)">
<path d="M18.8569 10.9996C18.857 12.8589 18.1063 14.6434 16.7672 15.9669C15.428 17.2905 13.6082 18.0466 11.7016 18.0715H11.6041C9.75183 18.076 7.96889 17.3849 6.62541 16.1415C6.56772 16.0883 6.52134 16.0245 6.48892 15.9538C6.4565 15.8832 6.43868 15.8069 6.43647 15.7295C6.43426 15.6521 6.4477 15.5751 6.47604 15.5027C6.50437 15.4304 6.54704 15.3642 6.60161 15.308C6.65618 15.2517 6.72157 15.2065 6.79406 15.1749C6.86656 15.1433 6.94472 15.1259 7.0241 15.1237C7.10348 15.1216 7.18252 15.1347 7.2567 15.1623C7.33088 15.1899 7.39876 15.2316 7.45645 15.2848C8.32058 16.0794 9.40569 16.6081 10.5762 16.8049C11.7467 17.0017 12.9508 16.8579 14.0379 16.3913C15.1251 15.9247 16.0472 15.1562 16.6889 14.1816C17.3307 13.207 17.6638 12.0697 17.6465 10.9116C17.6292 9.75354 17.2624 8.62612 16.5918 7.67017C15.9212 6.71422 14.9766 5.97213 13.876 5.53661C12.7754 5.10108 11.5675 4.99143 10.4034 5.22135C9.23921 5.45127 8.17034 6.01057 7.33028 6.82937C7.32411 6.83588 7.31755 6.84203 7.31064 6.84779L5.30254 8.64229H7.37335C7.53364 8.64229 7.68737 8.70438 7.80072 8.8149C7.91407 8.92542 7.97774 9.07532 7.97774 9.23162C7.97774 9.38792 7.91407 9.53782 7.80072 9.64834C7.68737 9.75886 7.53364 9.82095 7.37335 9.82095H3.74697C3.58668 9.82095 3.43295 9.75886 3.3196 9.64834C3.20626 9.53782 3.14258 9.38792 3.14258 9.23162V5.69565C3.14258 5.53935 3.20626 5.38945 3.3196 5.27893C3.43295 5.16841 3.58668 5.10632 3.74697 5.10632C3.90727 5.10632 4.061 5.16841 4.17435 5.27893C4.28769 5.38945 4.35137 5.53935 4.35137 5.69565V7.8909L6.48564 5.99031C7.50101 5.0041 8.79327 4.33332 10.1993 4.06264C11.6053 3.79197 13.0621 3.93353 14.3856 4.46947C15.7092 5.00541 16.8403 5.91169 17.6361 7.0739C18.4318 8.23612 18.8567 9.60217 18.8569 10.9996Z" fill="white"/>
<path d="M10.059 13.25V9.26986L10.1276 8.88307H10.7577V13.25H10.059ZM9.11075 10.162V9.50692C9.20641 9.51108 9.31454 9.48404 9.43515 9.42582C9.55992 9.36343 9.68261 9.28233 9.80322 9.18252C9.92383 9.0827 10.032 8.98081 10.1276 8.87683L10.5768 9.34472C10.4312 9.4986 10.2794 9.64001 10.1214 9.76893C9.96334 9.89786 9.79906 9.99768 9.62855 10.0684C9.46219 10.1391 9.28959 10.1703 9.11075 10.162ZM13.4087 13.3249C13.0677 13.3249 12.7641 13.2292 12.4979 13.0379C12.2317 12.8424 12.0217 12.5762 11.8678 12.2394C11.7181 11.8983 11.6432 11.5074 11.6432 11.0665C11.6432 10.6257 11.7181 10.2368 11.8678 9.89994C12.0217 9.55891 12.2296 9.29273 12.4917 9.10142C12.7578 8.90595 13.0635 8.80821 13.4087 8.80821C13.7539 8.80821 14.0596 8.90595 14.3258 9.10142C14.5919 9.29273 14.7999 9.55891 14.9496 9.89994C15.1035 10.2368 15.1804 10.6257 15.1804 11.0665C15.1804 11.5074 15.1035 11.8983 14.9496 12.2394C14.7999 12.5762 14.5919 12.8424 14.3258 13.0379C14.0638 13.2292 13.7581 13.3249 13.4087 13.3249ZM13.415 12.6698C13.6187 12.6698 13.7997 12.6012 13.9577 12.464C14.1199 12.3267 14.2447 12.1375 14.332 11.8963C14.4235 11.655 14.4693 11.3785 14.4693 11.0665C14.4693 10.7546 14.4235 10.478 14.332 10.2368C14.2447 9.99144 14.1199 9.80013 13.9577 9.66288C13.7997 9.52563 13.6167 9.45701 13.4087 9.45701C13.2008 9.45701 13.0178 9.52563 12.8597 9.66288C12.7017 9.80013 12.5769 9.98936 12.4854 10.2306C12.3981 10.4718 12.3544 10.7505 12.3544 11.0665C12.3544 11.3785 12.3981 11.655 12.4854 11.8963C12.5769 12.1375 12.7017 12.3267 12.8597 12.464C13.0219 12.6012 13.207 12.6698 13.415 12.6698Z" fill="white"/>
</g>
<defs>
<clipPath id="clip0_351_4771">
<rect width="15.7143" height="15.7143" fill="white" transform="translate(3.14258 3.14307)"/>
</clipPath>
</defs>
</svg>
