<svg width="36" height="36" viewBox="0 0 36 36" fill="none" xmlns="http://www.w3.org/2000/svg">
<path d="M12 14.5C12 13.68 12.9067 13 14 13L22 13C23.0933 13 24 13.68 24 14.5C24 15.32 23.0933 16 22 16L14 16C12.9067 16 12 15.32 12 14.5Z" fill="white"/>
<path d="M21.6456 6C24.8638 6 27.4644 7.28395 27.5 10.5478V28.7631C27.5 28.9671 27.4525 29.1711 27.3575 29.3511C27.2031 29.6391 26.9419 29.8551 26.6213 29.9511C26.3125 30.0471 25.9681 29.9991 25.6831 29.8311L17.9881 25.9432L10.2812 29.8311C10.1043 29.9259 9.90125 29.9871 9.69938 29.9871C9.03438 29.9871 8.5 29.4351 8.5 28.7631V10.5478C8.5 7.28395 11.1125 6 14.3187 6H21.6456ZM22.4531 13.2477H13.5113C13.0006 13.2477 12.585 13.6677 12.585 14.1957C12.585 14.7225 13.0006 15.1436 13.5113 15.1436H22.4531C22.9637 15.1436 23.3794 14.7225 23.3794 14.1957C23.3794 13.6677 22.9637 13.2477 22.4531 13.2477Z" fill="#D5123A"/>
</svg>
