<svg width="22" height="22" viewBox="0 0 22 22" fill="none" xmlns="http://www.w3.org/2000/svg">
<rect width="22" height="22" rx="11" fill="black" fill-opacity="0.48"/>
<path d="M19.25 7.57566V10.6696C19.25 10.8063 19.1943 10.9375 19.0951 11.0342C18.9959 11.1309 18.8614 11.1852 18.7212 11.1852H15.5482C15.4079 11.1852 15.2734 11.1309 15.1742 11.0342C15.0751 10.9375 15.0193 10.8063 15.0193 10.6696C15.0193 10.5328 15.0751 10.4016 15.1742 10.3049C15.2734 10.2082 15.4079 10.1539 15.5482 10.1539H17.3594L15.6017 8.58376L15.5852 8.56829C14.8502 7.85185 13.9149 7.36248 12.8963 7.1613C11.8777 6.96013 10.8209 7.05607 9.85786 7.43715C8.89485 7.81822 8.06834 8.46753 7.48158 9.30396C6.89482 10.1404 6.57384 11.1269 6.55872 12.1401C6.5436 13.1534 6.83502 14.1486 7.39657 15.0013C7.95812 15.854 8.7649 16.5265 9.71614 16.9347C10.6674 17.343 11.7209 17.4689 12.7451 17.2967C13.7693 17.1245 14.7187 16.6618 15.4748 15.9666C15.5767 15.8725 15.7128 15.8218 15.8531 15.8257C15.9934 15.8295 16.1263 15.8875 16.2228 15.9869C16.3192 16.0863 16.3712 16.2189 16.3673 16.3557C16.3634 16.4925 16.3039 16.6222 16.2019 16.7162C15.0263 17.8034 13.4667 18.4078 11.8463 18.4043H11.7591C10.7198 18.3904 9.69983 18.1278 8.78896 17.6396C7.87809 17.1513 7.10415 16.4524 6.53518 15.6042C5.96621 14.756 5.61962 13.7846 5.52587 12.7752C5.43212 11.7658 5.59408 10.7494 5.99752 9.81535C6.40097 8.8813 7.03354 8.05817 7.83963 7.41832C8.64573 6.77847 9.60068 6.34148 10.6205 6.14577C11.6404 5.95005 12.694 6.0016 13.6886 6.29588C14.6833 6.59016 15.5885 7.11817 16.3249 7.83349L18.1923 9.49645V7.57566C18.1923 7.4389 18.2481 7.30775 18.3472 7.21104C18.4464 7.11434 18.5809 7.06001 18.7212 7.06001C18.8614 7.06001 18.9959 7.11434 19.0951 7.21104C19.1943 7.30775 19.25 7.4389 19.25 7.57566Z" fill="white"/>
<path d="M9.58488 14.2002V10.7173L9.64493 10.3789H10.1963V14.2002H9.58488ZM8.7551 11.498V10.9248C8.83881 10.9284 8.93343 10.9047 9.03898 10.8538C9.14816 10.7992 9.25552 10.7282 9.36106 10.6409C9.4666 10.5535 9.56123 10.4644 9.64493 10.3734L10.038 10.7828C9.91061 10.9175 9.77777 11.0412 9.63947 11.154C9.50118 11.2669 9.35742 11.3542 9.20821 11.4161C9.06263 11.4779 8.9116 11.5052 8.7551 11.498ZM12.5161 14.2657C12.2177 14.2657 11.952 14.182 11.7191 14.0146C11.4862 13.8435 11.3024 13.6106 11.1677 13.3158C11.0367 13.0174 10.9712 12.6753 10.9712 12.2895C10.9712 11.9038 11.0367 11.5635 11.1677 11.2687C11.3024 10.9703 11.4843 10.7373 11.7136 10.5699C11.9465 10.3989 12.214 10.3133 12.5161 10.3133C12.8182 10.3133 13.0857 10.3989 13.3186 10.5699C13.5515 10.7373 13.7335 10.9703 13.8645 11.2687C13.9991 11.5635 14.0665 11.9038 14.0665 12.2895C14.0665 12.6753 13.9991 13.0174 13.8645 13.3158C13.7335 13.6106 13.5515 13.8435 13.3186 14.0146C13.0893 14.182 12.8218 14.2657 12.5161 14.2657ZM12.5216 13.6925C12.6999 13.6925 12.8582 13.6325 12.9965 13.5124C13.1384 13.3923 13.2476 13.2267 13.324 13.0156C13.4041 12.8045 13.4441 12.5625 13.4441 12.2895C13.4441 12.0166 13.4041 11.7746 13.324 11.5635C13.2476 11.3487 13.1384 11.1813 12.9965 11.0612C12.8582 10.9411 12.6981 10.8811 12.5161 10.8811C12.3341 10.8811 12.174 10.9411 12.0357 11.0612C11.8974 11.1813 11.7882 11.3469 11.7082 11.558C11.6317 11.7691 11.5935 12.0129 11.5935 12.2895C11.5935 12.5625 11.6317 12.8045 11.7082 13.0156C11.7882 13.2267 11.8974 13.3923 12.0357 13.5124C12.1776 13.6325 12.3396 13.6925 12.5216 13.6925Z" fill="white"/>
</svg>
