<svg width="37" height="36" viewBox="0 0 37 36" fill="none" xmlns="http://www.w3.org/2000/svg">
<mask id="mask0_308_1300" style="mask-type:luminance" maskUnits="userSpaceOnUse" x="2" y="2" width="33" height="32">
<path d="M34.8889 2H2V34H34.8889V2Z" fill="white"/>
</mask>
<g mask="url(#mask0_308_1300)">
<g filter="url(#filter0_i_308_1300)">
<path d="M29.4625 11.0931L21.5692 5.71975C19.4177 4.25309 16.1151 4.33309 14.0459 5.89309L7.18034 11.1064C5.80997 12.1464 4.72738 14.2798 4.72738 15.9598V25.1598C4.72738 28.5598 7.56404 31.3331 11.0585 31.3331H25.831C29.3255 31.3331 32.1622 28.5731 32.1622 25.1731V16.1331C32.1622 14.3331 30.9699 12.1198 29.4625 11.0931Z" fill="url(#paint0_linear_308_1300)"/>
</g>
<path d="M18.4445 27C17.8826 27 17.4167 26.5467 17.4167 26V22C17.4167 21.4533 17.8826 21 18.4445 21C19.0063 21 19.4722 21.4533 19.4722 22V26C19.4722 26.5467 19.0063 27 18.4445 27Z" fill="white"/>
</g>
<defs>
<filter id="filter0_i_308_1300" x="4.72738" y="4.66943" width="27.4348" height="26.6636" filterUnits="userSpaceOnUse" color-interpolation-filters="sRGB">
<feFlood flood-opacity="0" result="BackgroundImageFix"/>
<feBlend mode="normal" in="SourceGraphic" in2="BackgroundImageFix" result="shape"/>
<feColorMatrix in="SourceAlpha" type="matrix" values="0 0 0 0 0 0 0 0 0 0 0 0 0 0 0 0 0 0 127 0" result="hardAlpha"/>
<feOffset/>
<feGaussianBlur stdDeviation="4"/>
<feComposite in2="hardAlpha" operator="arithmetic" k2="-1" k3="1"/>
<feColorMatrix type="matrix" values="0 0 0 0 1 0 0 0 0 1 0 0 0 0 1 0 0 0 0.25 0"/>
<feBlend mode="normal" in2="shape" result="effect1_innerShadow_308_1300"/>
</filter>
<linearGradient id="paint0_linear_308_1300" x1="18.4448" y1="4.66943" x2="18.4448" y2="31.3331" gradientUnits="userSpaceOnUse">
<stop stop-color="#FF0040"/>
<stop offset="1" stop-color="#990026"/>
</linearGradient>
</defs>
</svg>
