<svg width="36" height="36" viewBox="0 0 36 36" fill="none" xmlns="http://www.w3.org/2000/svg">
<path fill-rule="evenodd" clip-rule="evenodd" d="M15.327 5.00031H19.6276C20.2756 4.99067 20.9101 5.20281 21.4211 5.60201C21.9361 6.007 22.2928 6.57591 22.424 7.21618L22.8 9.01934C22.9633 9.10677 23.124 9.19677 23.2822 9.28934L25.1046 8.6915C25.4795 8.57049 25.8754 8.52841 26.2674 8.56791C26.6594 8.60741 27.0389 8.72762 27.3822 8.92099C27.8065 9.16013 28.1632 9.5034 28.412 9.92382L30.5816 13.5031C30.9323 14.0578 31.0706 14.7205 30.971 15.3691C30.8714 16.0178 30.5406 16.6085 30.0397 17.0323H30.0358L28.6049 18.2531V18.7506L30.0185 20.01C30.5097 20.4269 30.837 21.0047 30.9419 21.6405C31.0468 22.2763 30.9225 22.9286 30.5912 23.4813L28.4892 27.0683V27.0722C28.239 27.4908 27.8844 27.8372 27.4602 28.0775C27.0359 28.3179 26.5565 28.444 26.0689 28.4434C25.7673 28.445 25.4673 28.3994 25.1798 28.3084L25.1702 28.3045L23.3632 27.7086C23.2024 27.8037 23.0392 27.8944 22.8733 27.9805L22.4992 29.7818C22.3671 30.4223 22.0117 30.9951 21.4963 31.3979C20.984 31.7987 20.3494 32.0111 19.699 31.9995H15.3637C14.7146 32.0103 14.0815 31.7979 13.5701 31.3979C13.0552 30.9956 12.6998 30.4236 12.5673 29.7837L12.1913 27.9786C12.0284 27.8924 11.8677 27.8024 11.7091 27.7086L9.88668 28.3064C9.51176 28.4274 9.11585 28.4695 8.72387 28.43C8.3319 28.3905 7.95234 28.2703 7.6091 28.0769C7.18425 27.8399 6.82912 27.4954 6.57927 27.078L4.40776 23.4909C4.07105 22.9475 3.93656 22.3029 4.02791 21.6702C4.11925 21.0375 4.43059 20.4572 4.90725 20.0312L6.34785 18.2145L4.97282 16.9899C4.48088 16.5725 4.15337 15.9938 4.0488 15.3572C3.94423 14.7206 4.06941 14.0675 4.40198 13.5147L4.40583 13.5109L6.57927 9.92382C6.82579 9.50917 7.17538 9.16534 7.59407 8.92575C8.01276 8.68616 8.48631 8.55895 8.9687 8.5565C9.25927 8.54107 9.54597 8.56871 9.82882 8.63943L9.87125 8.651L11.6744 9.28548C11.8326 9.19291 11.9933 9.1042 12.1565 9.01934L12.5307 7.21811C12.6627 6.57754 13.0182 6.00475 13.5335 5.60201C14.0426 5.20281 14.679 4.99067 15.327 5.00031ZM17.5005 14.6429C16.4775 14.6429 15.4965 15.0493 14.7731 15.7726C14.0498 16.4959 13.6434 17.477 13.6434 18.4999C13.6434 19.5229 14.0498 20.5039 14.7731 21.2273C15.4965 21.9506 16.4775 22.357 17.5005 22.357C18.5234 22.357 19.5045 21.9506 20.2278 21.2273C20.9511 20.5039 21.3575 19.5229 21.3575 18.4999C21.3575 17.477 20.9511 16.4959 20.2278 15.7726C19.5045 15.0493 18.5234 14.6429 17.5005 14.6429ZM11.7149 18.4999C11.7149 16.9655 12.3245 15.4939 13.4095 14.4089C14.4945 13.3239 15.966 12.7144 17.5005 12.7144C19.0349 12.7144 20.5065 13.3239 21.5915 14.4089C22.6765 15.4939 23.286 16.9655 23.286 18.4999C23.286 20.0344 22.6765 21.5059 21.5915 22.5909C20.5065 23.6759 19.0349 24.2855 17.5005 24.2855C15.966 24.2855 14.4945 23.6759 13.4095 22.5909C12.3245 21.5059 11.7149 20.0344 11.7149 18.4999Z" fill="#D5123A"/>
</svg>
