<svg width="24" height="24" viewBox="0 0 24 24" fill="none" xmlns="http://www.w3.org/2000/svg">
<path d="M12.4976 2.96436C9.20748 2.96436 6.53366 5.63817 6.53366 8.92825V11.8009C6.53366 12.4072 6.27522 13.3316 5.96709 13.8485L4.82401 15.747C4.11828 16.9199 4.60533 18.222 5.89751 18.6594C10.1816 20.0907 14.8036 20.0907 19.0877 18.6594C20.2904 18.2618 20.8172 16.8404 20.1612 15.747L19.0181 13.8485C18.7199 13.3316 18.4615 12.4072 18.4615 11.8009V8.92825C18.4615 5.64811 15.7777 2.96436 12.4976 2.96436Z" stroke="white" stroke-width="1.5" stroke-miterlimit="10" stroke-linecap="round"/>
<path d="M14.3365 3.25242C14.0283 3.16296 13.7103 3.09338 13.3822 3.05362C12.428 2.93434 11.5135 3.00392 10.6587 3.25242C10.947 2.51687 11.6626 2 12.4976 2C13.3325 2 14.0482 2.51687 14.3365 3.25242Z" stroke="white" stroke-width="1.5" stroke-miterlimit="10" stroke-linecap="round" stroke-linejoin="round"/>
<path d="M15.4795 19.0181C15.4795 20.6581 14.1377 22 12.4976 22C11.6825 22 10.9271 21.6621 10.3904 21.1253C9.8536 20.5886 9.51565 19.8331 9.51565 19.0181" stroke="white" stroke-width="1.5" stroke-miterlimit="10"/>
<circle cx="17.5" cy="5" r="3.5" fill="#DC3545" stroke="white"/>
</svg>
