<svg width="24" height="24" viewBox="0 0 24 24" fill="none" xmlns="http://www.w3.org/2000/svg">
<path d="M11.4444 17H12.5556V10.8889H11.4444V17ZM12 9.30778C12.1941 9.30778 12.3567 9.24222 12.4878 9.11111C12.6189 8.98 12.6841 8.81741 12.6833 8.62333C12.6826 8.42926 12.617 8.26704 12.4867 8.13667C12.3563 8.0063 12.1941 7.94074 12 7.94C11.8059 7.93926 11.6437 8.00481 11.5133 8.13667C11.383 8.26852 11.3174 8.43111 11.3167 8.62444C11.3159 8.81778 11.3815 8.98 11.5133 9.11111C11.6452 9.24222 11.8074 9.30778 12 9.30778ZM12.0033 22C10.6204 22 9.32037 21.7378 8.10333 21.2133C6.8863 20.6881 5.82741 19.9756 4.92667 19.0756C4.02593 18.1756 3.31296 17.1178 2.78778 15.9022C2.26259 14.6867 2 13.387 2 12.0033C2 10.6196 2.26259 9.31963 2.78778 8.10333C3.31222 6.8863 4.0237 5.82741 4.92222 4.92667C5.82074 4.02593 6.87889 3.31296 8.09667 2.78778C9.31445 2.26259 10.6144 2 11.9967 2C13.3789 2 14.6789 2.26259 15.8967 2.78778C17.1137 3.31222 18.1726 4.02407 19.0733 4.92333C19.9741 5.82259 20.687 6.88074 21.2122 8.09778C21.7374 9.31481 22 10.6144 22 11.9967C22 13.3789 21.7378 14.6789 21.2133 15.8967C20.6889 17.1144 19.9763 18.1733 19.0756 19.0733C18.1748 19.9733 17.117 20.6863 15.9022 21.2122C14.6874 21.7381 13.3878 22.0007 12.0033 22ZM12 20.8889C14.4815 20.8889 16.5833 20.0278 18.3056 18.3056C20.0278 16.5833 20.8889 14.4815 20.8889 12C20.8889 9.51852 20.0278 7.41667 18.3056 5.69444C16.5833 3.97222 14.4815 3.11111 12 3.11111C9.51852 3.11111 7.41667 3.97222 5.69444 5.69444C3.97222 7.41667 3.11111 9.51852 3.11111 12C3.11111 14.4815 3.97222 16.5833 5.69444 18.3056C7.41667 20.0278 9.51852 20.8889 12 20.8889Z" fill="white" stroke="white" stroke-width="0.555556"/>
</svg>
