<svg width="168" height="168" viewBox="0 0 168 168" fill="none" xmlns="http://www.w3.org/2000/svg">
<path d="M24.9001 127.439C29.4697 138.59 36.9205 140.911 42.159 138.59C52.2901 134.101 78.607 129.086 105.635 140.874C141.433 156.488 149.05 132.931 137.625 109.102C126.2 85.2736 122.328 61.1762 135.498 47.9C148.669 34.6237 131.434 13.8548 100.826 35.4738C81.0464 49.4447 66.5303 46.3338 58.7352 42.3843C51.3885 38.662 43.2182 34.7705 35.5633 37.809C26.275 41.496 22.6152 49.4896 36.7469 67.3474C56.7727 92.6534 14.6567 102.444 24.9001 127.439Z" fill="white" fill-opacity="0.12"/>
<path d="M43.5061 73.1187H114.623V127.812C114.623 127.923 114.579 128.03 114.5 128.109C114.421 128.188 114.314 128.232 114.203 128.232H43.9261C43.8147 128.232 43.7079 128.188 43.6291 128.109C43.5503 128.03 43.5061 127.923 43.5061 127.812V73.1187Z" fill="#D6163D"/>
<path d="M96.7821 51.6855H63.7142L43.5061 73.1184H114.623L96.7821 51.6855Z" fill="url(#paint0_linear_365_1584)"/>
<path d="M50.2421 43.1123L63.7141 51.6855L43.506 73.1184L28.1968 61.4834L50.2421 43.1123Z" fill="#D6163D"/>
<path d="M110.254 43.1123L96.782 51.6855L114.623 73.1184L132.299 61.4834L110.254 43.1123Z" fill="#D6163D"/>
<path d="M72.4019 43.5507C72.7821 43.3705 73.0779 43.0503 73.2275 42.657C73.3771 42.2638 73.3689 41.8279 73.2046 41.4406L67.1441 27.1498C67.0583 26.9474 66.9324 26.7644 66.774 26.6119C66.6157 26.4594 66.4281 26.3405 66.2226 26.2623C66.0171 26.1841 65.7979 26.1483 65.5782 26.157C65.3585 26.1658 65.1428 26.2188 64.9442 26.313L63.7766 26.8667C63.5779 26.9609 63.4003 27.0943 63.2545 27.2588C63.1088 27.4234 62.9978 27.6158 62.9282 27.8244C62.8587 28.0329 62.832 28.2534 62.8499 28.4726C62.8677 28.6917 62.9297 28.905 63.0321 29.0996L70.2601 42.8366C70.456 43.2089 70.7883 43.4912 71.1875 43.6242C71.5866 43.7573 72.0218 43.731 72.4019 43.5507Z" fill="#D6163E"/>
<path d="M80.0002 42.1654C80.2753 42.1458 80.5323 42.0207 80.7173 41.8161C80.9023 41.6115 81.0012 41.3433 80.9932 41.0676L80.6938 30.8939C80.6895 30.7498 80.6562 30.608 80.5958 30.4771C80.5353 30.3462 80.4491 30.2289 80.3421 30.1322C80.2352 30.0355 80.1098 29.9614 79.9735 29.9144C79.8372 29.8674 79.6928 29.8484 79.549 29.8586L78.7038 29.9189C78.56 29.9291 78.4198 29.9683 78.2916 30.0341C78.1633 30.0999 78.0497 30.1909 77.9576 30.3017C77.8654 30.4125 77.7966 30.5408 77.7553 30.6789C77.714 30.817 77.701 30.962 77.7172 31.1052L78.8618 41.2188C78.8928 41.493 79.0285 41.7446 79.2407 41.921C79.4528 42.0974 79.725 42.185 80.0002 42.1654V42.1654Z" fill="#D6163E"/>
<path d="M85.8661 45.9264C86.623 46.364 87.6854 45.9624 88.2747 45.016L98.7381 28.2116C99.3632 27.2077 99.2151 25.9841 98.4124 25.52L97.2935 24.8732C96.4908 24.4091 95.3564 24.8911 94.7983 25.9336L85.4536 43.3847C84.9273 44.3676 85.1093 45.4888 85.8661 45.9264Z" fill="#D6163E"/>
<defs>
<linearGradient id="paint0_linear_365_1584" x1="81" y1="37.5" x2="79.0646" y2="73.1184" gradientUnits="userSpaceOnUse">
<stop stop-color="#FF0040"/>
<stop offset="1" stop-color="#990026"/>
</linearGradient>
</defs>
</svg>
