<svg width="50" height="50" viewBox="0 0 50 50" fill="none" xmlns="http://www.w3.org/2000/svg">
<path d="M48.1504 25C49.1719 25 50.0071 24.1707 49.9316 23.152C49.5246 17.6584 47.3114 12.4331 43.6101 8.30678C39.4958 3.71996 33.8324 0.814147 27.7069 0.146979C21.5814 -0.520189 15.4253 1.09829 10.42 4.69182C5.41461 8.28535 1.91268 13.6008 0.586187 19.618C-0.740305 25.6353 0.202098 31.9304 3.23254 37.2954C6.26299 42.6604 11.168 46.7173 17.0062 48.6875C22.8445 50.6578 29.2047 50.4025 34.8663 47.9708C39.9595 45.7832 44.1645 41.9728 46.8437 37.1595C47.3405 36.267 46.9314 35.1634 46.0046 34.7339C45.0778 34.3044 43.9852 34.7126 43.477 35.5986C41.1892 39.5872 37.6616 42.7443 33.4064 44.5719C28.5825 46.6439 23.1634 46.8613 18.189 45.1826C13.2146 43.5039 9.03539 40.0473 6.45335 35.4762C3.8713 30.905 3.06834 25.5413 4.19856 20.4144C5.32877 15.2874 8.31255 10.7585 12.5773 7.6967C16.842 4.63489 22.0872 3.25588 27.3064 3.82434C32.5255 4.39279 37.3509 6.86864 40.8565 10.7768C43.9488 14.2242 45.822 18.5719 46.2207 23.1527C46.3092 24.1703 47.129 25 48.1504 25Z" fill="url(#paint0_linear_308_3374)"/>
<defs>
<linearGradient id="paint0_linear_308_3374" x1="34.5" y1="2" x2="51" y2="26" gradientUnits="userSpaceOnUse">
<stop stop-color="#FF0040"/>
<stop offset="1" stop-color="#990026" stop-opacity="0.12"/>
</linearGradient>
</defs>
</svg>
