<svg width="112" height="38" viewBox="0 0 112 38" fill="none" xmlns="http://www.w3.org/2000/svg">
<circle cx="18.4129" cy="19.0007" r="16.6736" fill="url(#paint0_linear_28_675)"/>
<path d="M35.3879 8.93652C36.4444 8.93652 37.301 9.79314 37.301 10.8496C37.3009 11.906 36.4444 12.7627 35.3879 12.7627C28.3736 12.7628 20.6067 17.8396 20.6067 27.5439C20.6067 28.6004 19.7501 29.457 18.6936 29.457C18.6792 29.457 18.6649 29.4544 18.6506 29.4541C18.6363 29.4544 18.622 29.457 18.6077 29.457C17.5512 29.457 16.6946 28.6004 16.6946 27.5439C16.6946 17.8396 8.92769 12.7628 1.91333 12.7627C0.856918 12.7627 0.000339652 11.906 0.000244141 10.8496C0.000244141 9.79314 0.856859 8.93652 1.91333 8.93652C8.27426 8.93659 15.3588 12.3706 18.6506 19.085C21.9425 12.3706 29.027 8.93657 35.3879 8.93652Z" fill="white"/>
<path d="M56.7619 14.3099L56.8353 13.705H52.6557L52.894 12.0369H57.0736L57.1652 11.3953L52.5274 11.5236L52.7657 9.83711L66.6975 9.43382L66.4592 11.102L60.9048 11.2853L60.7948 12.0369H66.0376L65.7993 13.705H60.5565L60.4649 14.3099H66.8075L66.5692 16.0331H60.2266L60.1166 16.8397H65.3227L66.1292 16.1247L65.7809 18.6178H56.157L56.5236 16.0331H51.2809L51.5192 14.3099H56.7619ZM64.1128 6.26251H67.9074L67.6874 7.82067H65.9276L66.4775 8.99387H63.6912L63.1962 7.94899L62.6463 8.99387H59.5116L61.1065 6.0242L60.7032 5.47427H64.5344L64.1128 6.26251ZM56.7986 6.26251H60.2449L60.0249 7.82067H58.6317L59.1633 8.99387H56.377L55.9004 7.94899L55.3321 8.99387H52.1975L53.7923 6.0242L53.389 5.47427H57.2202L56.7986 6.26251ZM69.2441 16.9863L69.7024 13.76H83.5242L83.0659 16.9863H83.7992L83.6158 18.3245H68.3276L68.5109 16.9863H69.2441ZM81.1961 9.17719L81.0128 8.49893L80.9211 9.26884H73.277L73.3687 8.59058L73.0204 9.17719H69.8857L71.9755 6.06087L71.5539 5.45593H83.3225L84.5874 9.17719H81.1961ZM83.6892 9.85544L83.1942 13.2651H70.2523L70.7473 9.85544H83.6892ZM73.7719 7.91233H80.8662L80.7195 7.28906H74.1386L73.7719 7.91233ZM79.693 11.9452L79.7846 11.267H73.8269L73.7353 11.9452H79.693ZM79.528 15.1898L79.2897 16.9863H80.1329L80.3895 15.1898H79.528ZM75.8251 16.9863H76.6683L76.9066 15.1898H76.0634L75.8251 16.9863ZM72.3604 16.9863H73.2037L73.442 15.1898H72.6171L72.3604 16.9863Z" fill="white"/>
<mask id="path-6-outside-1_28_675" maskUnits="userSpaceOnUse" x="50.1709" y="24.3867" width="62" height="11" fill="black">
<rect fill="white" x="50.1709" y="24.3867" width="62" height="11"/>
<path d="M52.9123 24.7305H54.5342L53.1072 32.9722L52.7048 34.3867H51.2338L52.9123 24.7305ZM57.6901 30.8788L57.6775 31.0171C57.6272 31.4362 57.5329 31.8553 57.3946 32.2744C57.2563 32.6935 57.0656 33.0749 56.8225 33.4186C56.5795 33.7581 56.2777 34.0305 55.9173 34.2358C55.561 34.437 55.1377 34.5313 54.6474 34.5187C54.2157 34.5062 53.8574 34.3951 53.5724 34.1855C53.2874 33.976 53.0653 33.7057 52.906 33.3746C52.7509 33.0435 52.6441 32.6851 52.5854 32.2996C52.5267 31.914 52.5058 31.5389 52.5225 31.1743L52.5665 30.8159C52.6336 30.4304 52.7446 30.0385 52.8997 29.6403C53.0548 29.2422 53.256 28.8755 53.5032 28.5402C53.7547 28.2049 54.0523 27.9367 54.3959 27.7355C54.7438 27.5343 55.1419 27.44 55.5904 27.4526C56.0598 27.461 56.4412 27.5721 56.7345 27.7858C57.0279 27.9953 57.25 28.2678 57.4009 28.6031C57.556 28.9383 57.6524 29.3051 57.6901 29.7032C57.732 30.1014 57.732 30.4932 57.6901 30.8788ZM56.0556 31.0108L56.0682 30.8725C56.0933 30.6713 56.1059 30.4513 56.1059 30.2124C56.1059 29.9735 56.0786 29.7472 56.0241 29.5335C55.9697 29.3155 55.8691 29.1374 55.7224 28.9991C55.5799 28.8566 55.3703 28.7812 55.0937 28.7728C54.8381 28.7602 54.6097 28.8021 54.4085 28.8985C54.2073 28.9907 54.0334 29.1186 53.8867 29.282C53.74 29.4455 53.6185 29.632 53.5221 29.8415C53.4299 30.0511 53.3607 30.269 53.3146 30.4953L53.17 31.4886C53.1533 31.761 53.1763 32.0272 53.2392 32.287C53.3062 32.5427 53.4278 32.7564 53.6038 32.9282C53.7798 33.0959 54.0271 33.1839 54.3456 33.1923C54.6474 33.2048 54.9009 33.1462 55.1063 33.0162C55.3117 32.8821 55.4772 32.7061 55.6029 32.4882C55.7329 32.266 55.8335 32.0251 55.9047 31.7652C55.976 31.5054 56.0262 31.2539 56.0556 31.0108ZM61.9832 34.5125C61.518 34.5041 61.103 34.414 60.7384 34.2421C60.3738 34.0703 60.0699 33.8356 59.8269 33.538C59.5838 33.2405 59.4057 32.8947 59.2925 32.5007C59.1835 32.1068 59.1458 31.6856 59.1793 31.2371L59.2045 30.9794C59.2506 30.5142 59.3616 30.0699 59.5377 29.6466C59.7179 29.2191 59.9568 28.8398 60.2543 28.5088C60.5561 28.1735 60.9102 27.9115 61.3168 27.7229C61.7275 27.5343 62.1822 27.4463 62.681 27.4589C63.1546 27.4673 63.5569 27.5658 63.888 27.7544C64.2191 27.9388 64.4831 28.1881 64.6801 28.5025C64.8813 28.8126 65.0175 29.1647 65.0887 29.5586C65.16 29.9526 65.1726 30.3633 65.1265 30.7908L65.0322 31.4886H59.852L60.0343 30.3444L63.5737 30.3507L63.5988 30.2061C63.6365 29.9589 63.624 29.7263 63.5611 29.5083C63.5024 29.2904 63.3914 29.1144 63.2279 28.9802C63.0686 28.8419 62.8528 28.7686 62.5804 28.7602C62.2786 28.7518 62.023 28.8168 61.8134 28.9551C61.6039 29.0892 61.4299 29.2673 61.2916 29.4895C61.1575 29.7116 61.0527 29.9547 60.9773 30.2187C60.9019 30.4786 60.8495 30.7321 60.8201 30.9794L60.795 31.2308C60.774 31.4655 60.7803 31.6982 60.8139 31.9287C60.8516 32.1592 60.9207 32.3687 61.0213 32.5573C61.1261 32.7459 61.2707 32.8989 61.4551 33.0162C61.6395 33.1336 61.8679 33.1965 62.1403 33.2048C62.484 33.2132 62.7983 33.1441 63.0833 32.9974C63.3725 32.8465 63.6344 32.6495 63.8691 32.4064L64.6298 33.2677C64.437 33.5527 64.1981 33.7895 63.9131 33.9781C63.6282 34.1625 63.318 34.2987 62.9827 34.3867C62.6516 34.4747 62.3184 34.5166 61.9832 34.5125ZM70.0922 32.9408L70.5888 29.7786C70.614 29.5775 70.6014 29.3952 70.5511 29.2317C70.505 29.0641 70.417 28.93 70.2871 28.8294C70.1571 28.7288 69.9811 28.6764 69.759 28.6722C69.562 28.668 69.3797 28.7015 69.2121 28.7728C69.0486 28.844 68.9103 28.9467 68.7971 29.0808C68.684 29.2149 68.6065 29.3784 68.5645 29.5712L66.9426 29.5838C66.9677 29.2149 67.0746 28.8964 67.2632 28.6282C67.4518 28.3558 67.6907 28.1337 67.9799 27.9618C68.2691 27.7858 68.5834 27.6559 68.9229 27.5721C69.2624 27.4882 69.5955 27.4505 69.9224 27.4589C70.3877 27.4673 70.8026 27.5658 71.1672 27.7544C71.5318 27.943 71.8105 28.2112 72.0033 28.559C72.1961 28.9027 72.2673 29.3218 72.2171 29.8164L71.733 32.7836C71.6953 33.0267 71.668 33.2782 71.6513 33.538C71.6345 33.7937 71.668 34.0389 71.7518 34.2736L71.7456 34.3867L70.1425 34.393C70.0712 34.1583 70.0356 33.9173 70.0356 33.67C70.0398 33.4228 70.0587 33.1797 70.0922 32.9408ZM70.7774 30.2439L70.614 31.2308L69.6773 31.2246C69.4845 31.2246 69.2896 31.2455 69.0926 31.2874C68.8998 31.3293 68.7196 31.3964 68.552 31.4886C68.3843 31.5766 68.2439 31.6961 68.1308 31.8469C68.0176 31.9978 67.9485 32.1822 67.9233 32.4002C67.9024 32.5678 67.9212 32.7145 67.9799 32.8402C68.0386 32.9659 68.1266 33.0665 68.2439 33.142C68.3655 33.2132 68.5101 33.2509 68.6777 33.2551C68.9082 33.2593 69.1345 33.2153 69.3567 33.1231C69.5788 33.0267 69.7716 32.8926 69.935 32.7208C70.1027 32.5489 70.2179 32.3499 70.2808 32.1235L70.6643 32.8528C70.5721 33.1001 70.4463 33.3264 70.2871 33.5317C70.1278 33.7371 69.9434 33.9152 69.7338 34.0661C69.5243 34.2128 69.2959 34.3259 69.0486 34.4056C68.8055 34.4894 68.5499 34.5292 68.2816 34.525C67.9045 34.5166 67.5587 34.4286 67.2444 34.261C66.9342 34.0933 66.689 33.8607 66.5088 33.5632C66.3286 33.2656 66.2469 32.9219 66.2636 32.5322C66.2846 32.0879 66.3957 31.7191 66.5968 31.4257C66.8022 31.1282 67.0662 30.8935 67.3889 30.7216C67.7117 30.5498 68.0637 30.4262 68.4451 30.3507C68.8307 30.2753 69.21 30.2376 69.583 30.2376L70.7774 30.2439ZM75.1711 24.7305H76.793L75.366 32.9722L74.9636 34.3867H73.4926L75.1711 24.7305ZM79.9489 30.8788L79.9363 31.0171C79.886 31.4362 79.7917 31.8553 79.6534 32.2744C79.5151 32.6935 79.3244 33.0749 79.0813 33.4186C78.8383 33.7581 78.5365 34.0305 78.1761 34.2358C77.8198 34.437 77.3965 34.5313 76.9062 34.5187C76.4745 34.5062 76.1162 34.3951 75.8312 34.1855C75.5462 33.976 75.324 33.7057 75.1648 33.3746C75.0097 33.0435 74.9028 32.6851 74.8442 32.2996C74.7855 31.914 74.7645 31.5389 74.7813 31.1743L74.8253 30.8159C74.8924 30.4304 75.0034 30.0385 75.1585 29.6403C75.3136 29.2422 75.5147 28.8755 75.762 28.5402C76.0135 28.2049 76.311 27.9367 76.6547 27.7355C77.0026 27.5343 77.4007 27.44 77.8492 27.4526C78.3186 27.461 78.6999 27.5721 78.9933 27.7858C79.2867 27.9953 79.5088 28.2678 79.6597 28.6031C79.8148 28.9383 79.9112 29.3051 79.9489 29.7032C79.9908 30.1014 79.9908 30.4932 79.9489 30.8788ZM78.3144 31.0108L78.3269 30.8725C78.3521 30.6713 78.3647 30.4513 78.3647 30.2124C78.3647 29.9735 78.3374 29.7472 78.2829 29.5335C78.2285 29.3155 78.1279 29.1374 77.9812 28.9991C77.8387 28.8566 77.6291 28.7812 77.3525 28.7728C77.0969 28.7602 76.8685 28.8021 76.6673 28.8985C76.4661 28.9907 76.2922 29.1186 76.1455 29.282C75.9988 29.4455 75.8773 29.632 75.7809 29.8415C75.6887 30.0511 75.6195 30.269 75.5734 30.4953L75.4288 31.4886C75.4121 31.761 75.4351 32.0272 75.498 32.287C75.565 32.5427 75.6866 32.7564 75.8626 32.9282C76.0386 33.0959 76.2859 33.1839 76.6044 33.1923C76.9062 33.2048 77.1597 33.1462 77.3651 33.0162C77.5705 32.8821 77.736 32.7061 77.8617 32.4882C77.9917 32.266 78.0922 32.0251 78.1635 31.7652C78.2347 31.5054 78.285 31.2539 78.3144 31.0108ZM81.4256 31.0925L81.4444 30.9605C81.4947 30.4827 81.61 30.0322 81.7902 29.6089C81.9746 29.1814 82.2156 28.8042 82.5131 28.4773C82.8149 28.1504 83.1711 27.8969 83.5819 27.7166C83.9968 27.5322 84.4578 27.4463 84.9649 27.4589C85.4511 27.4673 85.8702 27.5679 86.2222 27.7606C86.5785 27.9492 86.8676 28.2049 87.0898 28.5276C87.3161 28.8461 87.4733 29.2108 87.5613 29.6215C87.6535 30.028 87.6786 30.4576 87.6367 30.9102L87.6241 31.0485C87.5697 31.5221 87.4502 31.9706 87.2658 32.3939C87.0814 32.813 86.8383 33.1839 86.5366 33.5066C86.2348 33.8293 85.8786 34.0808 85.4678 34.261C85.0571 34.4412 84.6003 34.525 84.0974 34.5125C83.6154 34.5041 83.1963 34.4056 82.84 34.217C82.488 34.0284 82.1988 33.7769 81.9725 33.4626C81.7504 33.1441 81.5932 32.7815 81.501 32.375C81.413 31.9685 81.3878 31.541 81.4256 31.0925ZM83.0601 30.9605L83.0475 31.0988C83.0307 31.3126 83.0265 31.541 83.0349 31.7841C83.0475 32.0272 83.0915 32.2556 83.1669 32.4693C83.2424 32.6831 83.3618 32.8591 83.5253 32.9974C83.6887 33.1315 83.9088 33.2027 84.1854 33.2111C84.4829 33.2195 84.7386 33.1608 84.9523 33.0351C85.1703 32.9052 85.3505 32.7333 85.493 32.5196C85.6355 32.3017 85.7486 32.0628 85.8325 31.8029C85.9163 31.5431 85.9729 31.2895 86.0022 31.0423L86.0148 30.9102C86.0357 30.6965 86.0399 30.466 86.0273 30.2187C86.0148 29.9714 85.9708 29.7409 85.8953 29.5272C85.8199 29.3092 85.7004 29.1311 85.537 28.9928C85.3735 28.8503 85.1514 28.7749 84.8706 28.7665C84.573 28.7539 84.3153 28.8147 84.0974 28.9488C83.8836 29.0829 83.7055 29.259 83.563 29.4769C83.4205 29.6948 83.3073 29.9358 83.2235 30.1998C83.1439 30.4597 83.0894 30.7133 83.0601 30.9605ZM91.0056 27.5846L91.8355 29.7346L93.3694 27.5846H95.2114L92.6967 30.992L94.1427 34.3867H92.4704L91.5589 32.1235L89.9495 34.3867H88.1075L90.7165 30.8411L89.3334 27.5846H91.0056ZM95.7828 33.6009C95.7786 33.3369 95.8666 33.1168 96.0468 32.9408C96.227 32.7648 96.4491 32.6768 96.7132 32.6768C96.9688 32.6726 97.1847 32.7522 97.3607 32.9157C97.5409 33.0749 97.6331 33.2845 97.6373 33.5443C97.6415 33.8125 97.5514 34.0326 97.367 34.2044C97.1868 34.3762 96.9667 34.4622 96.7069 34.4622C96.4554 34.4663 96.2375 34.3888 96.0531 34.2296C95.8729 34.0703 95.7828 33.8607 95.7828 33.6009ZM104.024 27.5846L103.816 28.7791H100.026L100.233 27.5846H104.024ZM101.534 25.9124H103.156L102.044 32.4379C102.027 32.5846 102.027 32.7103 102.044 32.8151C102.064 32.9198 102.113 33.0016 102.188 33.0602C102.268 33.1189 102.387 33.1504 102.546 33.1545C102.634 33.1587 102.722 33.1545 102.811 33.142C102.903 33.1294 102.993 33.1189 103.081 33.1105L102.968 34.3679C102.808 34.414 102.647 34.4475 102.484 34.4684C102.32 34.4936 102.155 34.5062 101.987 34.5062C101.597 34.4978 101.279 34.4098 101.031 34.2421C100.788 34.0745 100.616 33.8461 100.516 33.5569C100.415 33.2635 100.382 32.9303 100.415 32.5573L101.534 25.9124ZM106.965 33.054L109.342 27.5846H111.083L107.751 34.3867H106.689L106.965 33.054ZM106.689 27.5846L107.386 33.2237L107.254 34.3867H106.249L105.035 27.5846H106.689Z"/>
</mask>
<path d="M52.9123 24.7305H54.5342L53.1072 32.9722L52.7048 34.3867H51.2338L52.9123 24.7305ZM57.6901 30.8788L57.6775 31.0171C57.6272 31.4362 57.5329 31.8553 57.3946 32.2744C57.2563 32.6935 57.0656 33.0749 56.8225 33.4186C56.5795 33.7581 56.2777 34.0305 55.9173 34.2358C55.561 34.437 55.1377 34.5313 54.6474 34.5187C54.2157 34.5062 53.8574 34.3951 53.5724 34.1855C53.2874 33.976 53.0653 33.7057 52.906 33.3746C52.7509 33.0435 52.6441 32.6851 52.5854 32.2996C52.5267 31.914 52.5058 31.5389 52.5225 31.1743L52.5665 30.8159C52.6336 30.4304 52.7446 30.0385 52.8997 29.6403C53.0548 29.2422 53.256 28.8755 53.5032 28.5402C53.7547 28.2049 54.0523 27.9367 54.3959 27.7355C54.7438 27.5343 55.1419 27.44 55.5904 27.4526C56.0598 27.461 56.4412 27.5721 56.7345 27.7858C57.0279 27.9953 57.25 28.2678 57.4009 28.6031C57.556 28.9383 57.6524 29.3051 57.6901 29.7032C57.732 30.1014 57.732 30.4932 57.6901 30.8788ZM56.0556 31.0108L56.0682 30.8725C56.0933 30.6713 56.1059 30.4513 56.1059 30.2124C56.1059 29.9735 56.0786 29.7472 56.0241 29.5335C55.9697 29.3155 55.8691 29.1374 55.7224 28.9991C55.5799 28.8566 55.3703 28.7812 55.0937 28.7728C54.8381 28.7602 54.6097 28.8021 54.4085 28.8985C54.2073 28.9907 54.0334 29.1186 53.8867 29.282C53.74 29.4455 53.6185 29.632 53.5221 29.8415C53.4299 30.0511 53.3607 30.269 53.3146 30.4953L53.17 31.4886C53.1533 31.761 53.1763 32.0272 53.2392 32.287C53.3062 32.5427 53.4278 32.7564 53.6038 32.9282C53.7798 33.0959 54.0271 33.1839 54.3456 33.1923C54.6474 33.2048 54.9009 33.1462 55.1063 33.0162C55.3117 32.8821 55.4772 32.7061 55.6029 32.4882C55.7329 32.266 55.8335 32.0251 55.9047 31.7652C55.976 31.5054 56.0262 31.2539 56.0556 31.0108ZM61.9832 34.5125C61.518 34.5041 61.103 34.414 60.7384 34.2421C60.3738 34.0703 60.0699 33.8356 59.8269 33.538C59.5838 33.2405 59.4057 32.8947 59.2925 32.5007C59.1835 32.1068 59.1458 31.6856 59.1793 31.2371L59.2045 30.9794C59.2506 30.5142 59.3616 30.0699 59.5377 29.6466C59.7179 29.2191 59.9568 28.8398 60.2543 28.5088C60.5561 28.1735 60.9102 27.9115 61.3168 27.7229C61.7275 27.5343 62.1822 27.4463 62.681 27.4589C63.1546 27.4673 63.5569 27.5658 63.888 27.7544C64.2191 27.9388 64.4831 28.1881 64.6801 28.5025C64.8813 28.8126 65.0175 29.1647 65.0887 29.5586C65.16 29.9526 65.1726 30.3633 65.1265 30.7908L65.0322 31.4886H59.852L60.0343 30.3444L63.5737 30.3507L63.5988 30.2061C63.6365 29.9589 63.624 29.7263 63.5611 29.5083C63.5024 29.2904 63.3914 29.1144 63.2279 28.9802C63.0686 28.8419 62.8528 28.7686 62.5804 28.7602C62.2786 28.7518 62.023 28.8168 61.8134 28.9551C61.6039 29.0892 61.4299 29.2673 61.2916 29.4895C61.1575 29.7116 61.0527 29.9547 60.9773 30.2187C60.9019 30.4786 60.8495 30.7321 60.8201 30.9794L60.795 31.2308C60.774 31.4655 60.7803 31.6982 60.8139 31.9287C60.8516 32.1592 60.9207 32.3687 61.0213 32.5573C61.1261 32.7459 61.2707 32.8989 61.4551 33.0162C61.6395 33.1336 61.8679 33.1965 62.1403 33.2048C62.484 33.2132 62.7983 33.1441 63.0833 32.9974C63.3725 32.8465 63.6344 32.6495 63.8691 32.4064L64.6298 33.2677C64.437 33.5527 64.1981 33.7895 63.9131 33.9781C63.6282 34.1625 63.318 34.2987 62.9827 34.3867C62.6516 34.4747 62.3184 34.5166 61.9832 34.5125ZM70.0922 32.9408L70.5888 29.7786C70.614 29.5775 70.6014 29.3952 70.5511 29.2317C70.505 29.0641 70.417 28.93 70.2871 28.8294C70.1571 28.7288 69.9811 28.6764 69.759 28.6722C69.562 28.668 69.3797 28.7015 69.2121 28.7728C69.0486 28.844 68.9103 28.9467 68.7971 29.0808C68.684 29.2149 68.6065 29.3784 68.5645 29.5712L66.9426 29.5838C66.9677 29.2149 67.0746 28.8964 67.2632 28.6282C67.4518 28.3558 67.6907 28.1337 67.9799 27.9618C68.2691 27.7858 68.5834 27.6559 68.9229 27.5721C69.2624 27.4882 69.5955 27.4505 69.9224 27.4589C70.3877 27.4673 70.8026 27.5658 71.1672 27.7544C71.5318 27.943 71.8105 28.2112 72.0033 28.559C72.1961 28.9027 72.2673 29.3218 72.2171 29.8164L71.733 32.7836C71.6953 33.0267 71.668 33.2782 71.6513 33.538C71.6345 33.7937 71.668 34.0389 71.7518 34.2736L71.7456 34.3867L70.1425 34.393C70.0712 34.1583 70.0356 33.9173 70.0356 33.67C70.0398 33.4228 70.0587 33.1797 70.0922 32.9408ZM70.7774 30.2439L70.614 31.2308L69.6773 31.2246C69.4845 31.2246 69.2896 31.2455 69.0926 31.2874C68.8998 31.3293 68.7196 31.3964 68.552 31.4886C68.3843 31.5766 68.2439 31.6961 68.1308 31.8469C68.0176 31.9978 67.9485 32.1822 67.9233 32.4002C67.9024 32.5678 67.9212 32.7145 67.9799 32.8402C68.0386 32.9659 68.1266 33.0665 68.2439 33.142C68.3655 33.2132 68.5101 33.2509 68.6777 33.2551C68.9082 33.2593 69.1345 33.2153 69.3567 33.1231C69.5788 33.0267 69.7716 32.8926 69.935 32.7208C70.1027 32.5489 70.2179 32.3499 70.2808 32.1235L70.6643 32.8528C70.5721 33.1001 70.4463 33.3264 70.2871 33.5317C70.1278 33.7371 69.9434 33.9152 69.7338 34.0661C69.5243 34.2128 69.2959 34.3259 69.0486 34.4056C68.8055 34.4894 68.5499 34.5292 68.2816 34.525C67.9045 34.5166 67.5587 34.4286 67.2444 34.261C66.9342 34.0933 66.689 33.8607 66.5088 33.5632C66.3286 33.2656 66.2469 32.9219 66.2636 32.5322C66.2846 32.0879 66.3957 31.7191 66.5968 31.4257C66.8022 31.1282 67.0662 30.8935 67.3889 30.7216C67.7117 30.5498 68.0637 30.4262 68.4451 30.3507C68.8307 30.2753 69.21 30.2376 69.583 30.2376L70.7774 30.2439ZM75.1711 24.7305H76.793L75.366 32.9722L74.9636 34.3867H73.4926L75.1711 24.7305ZM79.9489 30.8788L79.9363 31.0171C79.886 31.4362 79.7917 31.8553 79.6534 32.2744C79.5151 32.6935 79.3244 33.0749 79.0813 33.4186C78.8383 33.7581 78.5365 34.0305 78.1761 34.2358C77.8198 34.437 77.3965 34.5313 76.9062 34.5187C76.4745 34.5062 76.1162 34.3951 75.8312 34.1855C75.5462 33.976 75.324 33.7057 75.1648 33.3746C75.0097 33.0435 74.9028 32.6851 74.8442 32.2996C74.7855 31.914 74.7645 31.5389 74.7813 31.1743L74.8253 30.8159C74.8924 30.4304 75.0034 30.0385 75.1585 29.6403C75.3136 29.2422 75.5147 28.8755 75.762 28.5402C76.0135 28.2049 76.311 27.9367 76.6547 27.7355C77.0026 27.5343 77.4007 27.44 77.8492 27.4526C78.3186 27.461 78.6999 27.5721 78.9933 27.7858C79.2867 27.9953 79.5088 28.2678 79.6597 28.6031C79.8148 28.9383 79.9112 29.3051 79.9489 29.7032C79.9908 30.1014 79.9908 30.4932 79.9489 30.8788ZM78.3144 31.0108L78.3269 30.8725C78.3521 30.6713 78.3647 30.4513 78.3647 30.2124C78.3647 29.9735 78.3374 29.7472 78.2829 29.5335C78.2285 29.3155 78.1279 29.1374 77.9812 28.9991C77.8387 28.8566 77.6291 28.7812 77.3525 28.7728C77.0969 28.7602 76.8685 28.8021 76.6673 28.8985C76.4661 28.9907 76.2922 29.1186 76.1455 29.282C75.9988 29.4455 75.8773 29.632 75.7809 29.8415C75.6887 30.0511 75.6195 30.269 75.5734 30.4953L75.4288 31.4886C75.4121 31.761 75.4351 32.0272 75.498 32.287C75.565 32.5427 75.6866 32.7564 75.8626 32.9282C76.0386 33.0959 76.2859 33.1839 76.6044 33.1923C76.9062 33.2048 77.1597 33.1462 77.3651 33.0162C77.5705 32.8821 77.736 32.7061 77.8617 32.4882C77.9917 32.266 78.0922 32.0251 78.1635 31.7652C78.2347 31.5054 78.285 31.2539 78.3144 31.0108ZM81.4256 31.0925L81.4444 30.9605C81.4947 30.4827 81.61 30.0322 81.7902 29.6089C81.9746 29.1814 82.2156 28.8042 82.5131 28.4773C82.8149 28.1504 83.1711 27.8969 83.5819 27.7166C83.9968 27.5322 84.4578 27.4463 84.9649 27.4589C85.4511 27.4673 85.8702 27.5679 86.2222 27.7606C86.5785 27.9492 86.8676 28.2049 87.0898 28.5276C87.3161 28.8461 87.4733 29.2108 87.5613 29.6215C87.6535 30.028 87.6786 30.4576 87.6367 30.9102L87.6241 31.0485C87.5697 31.5221 87.4502 31.9706 87.2658 32.3939C87.0814 32.813 86.8383 33.1839 86.5366 33.5066C86.2348 33.8293 85.8786 34.0808 85.4678 34.261C85.0571 34.4412 84.6003 34.525 84.0974 34.5125C83.6154 34.5041 83.1963 34.4056 82.84 34.217C82.488 34.0284 82.1988 33.7769 81.9725 33.4626C81.7504 33.1441 81.5932 32.7815 81.501 32.375C81.413 31.9685 81.3878 31.541 81.4256 31.0925ZM83.0601 30.9605L83.0475 31.0988C83.0307 31.3126 83.0265 31.541 83.0349 31.7841C83.0475 32.0272 83.0915 32.2556 83.1669 32.4693C83.2424 32.6831 83.3618 32.8591 83.5253 32.9974C83.6887 33.1315 83.9088 33.2027 84.1854 33.2111C84.4829 33.2195 84.7386 33.1608 84.9523 33.0351C85.1703 32.9052 85.3505 32.7333 85.493 32.5196C85.6355 32.3017 85.7486 32.0628 85.8325 31.8029C85.9163 31.5431 85.9729 31.2895 86.0022 31.0423L86.0148 30.9102C86.0357 30.6965 86.0399 30.466 86.0273 30.2187C86.0148 29.9714 85.9708 29.7409 85.8953 29.5272C85.8199 29.3092 85.7004 29.1311 85.537 28.9928C85.3735 28.8503 85.1514 28.7749 84.8706 28.7665C84.573 28.7539 84.3153 28.8147 84.0974 28.9488C83.8836 29.0829 83.7055 29.259 83.563 29.4769C83.4205 29.6948 83.3073 29.9358 83.2235 30.1998C83.1439 30.4597 83.0894 30.7133 83.0601 30.9605ZM91.0056 27.5846L91.8355 29.7346L93.3694 27.5846H95.2114L92.6967 30.992L94.1427 34.3867H92.4704L91.5589 32.1235L89.9495 34.3867H88.1075L90.7165 30.8411L89.3334 27.5846H91.0056ZM95.7828 33.6009C95.7786 33.3369 95.8666 33.1168 96.0468 32.9408C96.227 32.7648 96.4491 32.6768 96.7132 32.6768C96.9688 32.6726 97.1847 32.7522 97.3607 32.9157C97.5409 33.0749 97.6331 33.2845 97.6373 33.5443C97.6415 33.8125 97.5514 34.0326 97.367 34.2044C97.1868 34.3762 96.9667 34.4622 96.7069 34.4622C96.4554 34.4663 96.2375 34.3888 96.0531 34.2296C95.8729 34.0703 95.7828 33.8607 95.7828 33.6009ZM104.024 27.5846L103.816 28.7791H100.026L100.233 27.5846H104.024ZM101.534 25.9124H103.156L102.044 32.4379C102.027 32.5846 102.027 32.7103 102.044 32.8151C102.064 32.9198 102.113 33.0016 102.188 33.0602C102.268 33.1189 102.387 33.1504 102.546 33.1545C102.634 33.1587 102.722 33.1545 102.811 33.142C102.903 33.1294 102.993 33.1189 103.081 33.1105L102.968 34.3679C102.808 34.414 102.647 34.4475 102.484 34.4684C102.32 34.4936 102.155 34.5062 101.987 34.5062C101.597 34.4978 101.279 34.4098 101.031 34.2421C100.788 34.0745 100.616 33.8461 100.516 33.5569C100.415 33.2635 100.382 32.9303 100.415 32.5573L101.534 25.9124ZM106.965 33.054L109.342 27.5846H111.083L107.751 34.3867H106.689L106.965 33.054ZM106.689 27.5846L107.386 33.2237L107.254 34.3867H106.249L105.035 27.5846H106.689Z" fill="white"/>
<path d="M52.9123 24.7305V24.6617H52.8544L52.8445 24.7187L52.9123 24.7305ZM54.5342 24.7305L54.602 24.7422L54.6159 24.6617H54.5342V24.7305ZM53.1072 32.9722L53.1737 32.9912L53.1749 32.984L53.1072 32.9722ZM52.7048 34.3867V34.4555H52.7568L52.771 34.4055L52.7048 34.3867ZM51.2338 34.3867L51.166 34.3749L51.152 34.4555H51.2338V34.3867ZM57.6901 30.8788L57.6217 30.8714L57.6216 30.8726L57.6901 30.8788ZM57.6775 31.0171L57.7458 31.0253L57.746 31.0233L57.6775 31.0171ZM56.8225 33.4186L56.8785 33.4586L56.8787 33.4583L56.8225 33.4186ZM55.9173 34.2358L55.9511 34.2957L55.9513 34.2956L55.9173 34.2358ZM54.6474 34.5187L54.6454 34.5875L54.6456 34.5875L54.6474 34.5187ZM52.906 33.3746L52.8437 33.4037L52.844 33.4044L52.906 33.3746ZM52.5225 31.1743L52.4541 31.1659L52.4538 31.1711L52.5225 31.1743ZM52.5665 30.8159L52.4987 30.8041L52.4983 30.8075L52.5665 30.8159ZM52.8997 29.6403L52.8356 29.6154L52.8997 29.6403ZM53.5032 28.5402L53.4482 28.4989L53.4479 28.4994L53.5032 28.5402ZM54.3959 27.7355L54.3615 27.676L54.3612 27.6761L54.3959 27.7355ZM55.5904 27.4526L55.5884 27.5214L55.5891 27.5214L55.5904 27.4526ZM56.7345 27.7858L56.694 27.8414L56.6946 27.8418L56.7345 27.7858ZM57.4009 28.6031L57.3382 28.6313L57.3385 28.6319L57.4009 28.6031ZM57.6901 29.7032L57.6216 29.7097L57.6217 29.7104L57.6901 29.7032ZM56.0556 31.0108L56.1239 31.0191L56.1241 31.017L56.0556 31.0108ZM56.0682 30.8725L55.9999 30.864L55.9997 30.8663L56.0682 30.8725ZM56.0241 29.5335L55.9574 29.5501L55.9575 29.5505L56.0241 29.5335ZM55.7224 28.9991L55.6737 29.0478L55.6752 29.0491L55.7224 28.9991ZM55.0937 28.7728L55.0904 28.8415L55.0917 28.8415L55.0937 28.7728ZM54.4085 28.8985L54.4372 28.9611L54.4382 28.9605L54.4085 28.8985ZM53.5221 29.8415L53.4596 29.8128L53.4591 29.8138L53.5221 29.8415ZM53.3146 30.4953L53.2471 30.4816L53.2466 30.4854L53.3146 30.4953ZM53.17 31.4886L53.1017 31.4787L53.1014 31.4844L53.17 31.4886ZM53.2392 32.287L53.1723 32.3032L53.1727 32.3044L53.2392 32.287ZM53.6038 32.9282L53.5558 32.9774L53.5564 32.978L53.6038 32.9282ZM54.3456 33.1923L54.3485 33.1235L54.3474 33.1235L54.3456 33.1923ZM55.1063 33.0162L55.1431 33.0744L55.1439 33.0738L55.1063 33.0162ZM55.6029 32.4882L55.5436 32.4534L55.5434 32.4538L55.6029 32.4882ZM52.9123 24.7305V24.7993H54.5342V24.7305V24.6617H52.9123V24.7305ZM54.5342 24.7305L54.4665 24.7188L53.0394 32.9605L53.1072 32.9722L53.1749 32.984L54.602 24.7422L54.5342 24.7305ZM53.1072 32.9722L53.041 32.9534L52.6387 34.3679L52.7048 34.3867L52.771 34.4055L53.1733 32.9911L53.1072 32.9722ZM52.7048 34.3867V34.3179H51.2338V34.3867V34.4555H52.7048V34.3867ZM51.2338 34.3867L51.3015 34.3985L52.98 24.7423L52.9123 24.7305L52.8445 24.7187L51.166 34.3749L51.2338 34.3867ZM57.6901 30.8788L57.6216 30.8726L57.609 31.0109L57.6775 31.0171L57.746 31.0233L57.7586 30.885L57.6901 30.8788ZM57.6775 31.0171L57.6092 31.0089C57.5595 31.4233 57.4663 31.8379 57.3293 32.2529L57.3946 32.2744L57.4599 32.296C57.5996 31.8727 57.6949 31.4491 57.7458 31.0253L57.6775 31.0171ZM57.3946 32.2744L57.3293 32.2529C57.193 32.6658 57.0054 33.041 56.7664 33.3789L56.8225 33.4186L56.8787 33.4583C57.1259 33.1088 57.3196 32.7212 57.4599 32.296L57.3946 32.2744ZM56.8225 33.4186L56.7666 33.3785C56.5293 33.71 56.235 33.9757 55.8832 34.1761L55.9173 34.2358L55.9513 34.2956C56.3204 34.0853 56.6296 33.8061 56.8785 33.4586L56.8225 33.4186ZM55.9173 34.2358L55.8835 34.176C55.54 34.3699 55.1295 34.4623 54.6491 34.45L54.6474 34.5187L54.6456 34.5875C55.1459 34.6003 55.582 34.5041 55.9511 34.2957L55.9173 34.2358ZM54.6474 34.5187L54.6494 34.45C54.2286 34.4377 53.8846 34.3297 53.6131 34.1301L53.5724 34.1855L53.5316 34.241C53.8302 34.4605 54.2029 34.5746 54.6454 34.5875L54.6474 34.5187ZM53.5724 34.1855L53.6131 34.1301C53.3376 33.9275 53.1226 33.6661 52.968 33.3448L52.906 33.3746L52.844 33.4044C53.008 33.7452 53.2372 34.0245 53.5316 34.241L53.5724 34.1855ZM52.906 33.3746L52.9683 33.3454C52.8162 33.0207 52.7111 32.6687 52.6534 32.2892L52.5854 32.2996L52.5174 32.3099C52.577 32.7016 52.6857 33.0663 52.8437 33.4037L52.906 33.3746ZM52.5854 32.2996L52.6534 32.2892C52.5953 31.9078 52.5747 31.5372 52.5912 31.1774L52.5225 31.1743L52.4538 31.1711C52.4368 31.5405 52.4581 31.9202 52.5174 32.3099L52.5854 32.2996ZM52.5225 31.1743L52.5908 31.1827L52.6348 30.8243L52.5665 30.8159L52.4983 30.8075L52.4543 31.1659L52.5225 31.1743ZM52.5665 30.8159L52.6343 30.8277C52.7005 30.447 52.8102 30.0596 52.9638 29.6653L52.8997 29.6403L52.8356 29.6154C52.679 30.0174 52.5667 30.4137 52.4988 30.8041L52.5665 30.8159ZM52.8997 29.6403L52.9638 29.6653C53.1167 29.2727 53.315 28.9113 53.5586 28.581L53.5032 28.5402L53.4479 28.4994C53.1969 28.8397 52.9928 29.2117 52.8356 29.6154L52.8997 29.6403ZM53.5032 28.5402L53.5582 28.5815C53.8045 28.2531 54.0953 27.9912 54.4307 27.7949L54.3959 27.7355L54.3612 27.6761C54.0092 27.8822 53.7049 28.1567 53.4482 28.4989L53.5032 28.5402ZM54.3959 27.7355L54.4304 27.795C54.7659 27.601 55.1512 27.5091 55.5884 27.5214L55.5904 27.4526L55.5923 27.3839C55.1326 27.371 54.7216 27.4677 54.3615 27.676L54.3959 27.7355ZM55.5904 27.4526L55.5891 27.5214C56.0485 27.5296 56.415 27.6381 56.694 27.8414L56.7345 27.7858L56.775 27.7302C56.4673 27.506 56.071 27.3924 55.5916 27.3838L55.5904 27.4526ZM56.7345 27.7858L56.6946 27.8418C56.9778 28.0441 57.1922 28.3069 57.3382 28.6313L57.4009 28.6031L57.4636 28.5748C57.3079 28.2287 57.078 27.9466 56.7745 27.7298L56.7345 27.7858ZM57.4009 28.6031L57.3385 28.6319C57.49 28.9596 57.5846 29.3187 57.6216 29.7097L57.6901 29.7032L57.7586 29.6967C57.7202 29.2915 57.6219 28.9171 57.4633 28.5742L57.4009 28.6031ZM57.6901 29.7032L57.6217 29.7104C57.6631 30.1038 57.6631 30.4908 57.6217 30.8714L57.6901 30.8788L57.7585 30.8862C57.8009 30.4956 57.8009 30.0989 57.7585 29.696L57.6901 29.7032ZM56.0556 31.0108L56.1241 31.017L56.1366 30.8787L56.0682 30.8725L55.9997 30.8663L55.9871 31.0046L56.0556 31.0108ZM56.0682 30.8725L56.1364 30.881C56.162 30.6766 56.1747 30.4537 56.1747 30.2124H56.1059H56.0371C56.0371 30.4489 56.0246 30.6661 55.9999 30.864L56.0682 30.8725ZM56.1059 30.2124H56.1747C56.1747 29.9683 56.1468 29.7362 56.0908 29.5165L56.0241 29.5335L55.9575 29.5505C56.0105 29.7582 56.0371 29.9788 56.0371 30.2124H56.1059ZM56.0241 29.5335L56.0909 29.5168C56.0336 29.2876 55.9269 29.0974 55.7696 28.9491L55.7224 28.9991L55.6752 29.0491C55.8113 29.1774 55.9058 29.3435 55.9574 29.5501L56.0241 29.5335ZM55.7224 28.9991L55.771 28.9505C55.6121 28.7916 55.3833 28.7128 55.0958 28.704L55.0937 28.7728L55.0917 28.8415C55.3574 28.8496 55.5477 28.9216 55.6738 29.0477L55.7224 28.9991ZM55.0937 28.7728L55.0971 28.7041C54.8317 28.691 54.5917 28.7345 54.3788 28.8365L54.4085 28.8985L54.4382 28.9605C54.6276 28.8698 54.8444 28.8294 55.0904 28.8415L55.0937 28.7728ZM54.4085 28.8985L54.3798 28.836C54.1702 28.9321 53.9886 29.0655 53.8355 29.2361L53.8867 29.282L53.9379 29.3279C54.0782 29.1716 54.2445 29.0494 54.4372 28.961L54.4085 28.8985ZM53.8867 29.282L53.8355 29.2361C53.684 29.4049 53.5587 29.5973 53.4596 29.8128L53.5221 29.8415L53.5846 29.8703C53.6782 29.6666 53.796 29.486 53.9379 29.3279L53.8867 29.282ZM53.5221 29.8415L53.4591 29.8138C53.3649 30.0279 53.2943 30.2505 53.2472 30.4816L53.3146 30.4953L53.382 30.509C53.4272 30.2875 53.4948 30.0742 53.585 29.8692L53.5221 29.8415ZM53.3146 30.4953L53.2466 30.4854L53.102 31.4787L53.17 31.4886L53.2381 31.4985L53.3827 30.5052L53.3146 30.4953ZM53.17 31.4886L53.1014 31.4844C53.0842 31.7635 53.1078 32.0365 53.1723 32.3032L53.2392 32.287L53.306 32.2708C53.2448 32.0178 53.2223 31.7585 53.2387 31.4928L53.17 31.4886ZM53.2392 32.287L53.1727 32.3044C53.2426 32.5712 53.3701 32.7962 53.5558 32.9774L53.6038 32.9282L53.6519 32.879C53.4854 32.7165 53.3699 32.5141 53.3057 32.2695L53.2392 32.287ZM53.6038 32.9282L53.5564 32.978C53.7482 33.1607 54.0137 33.2523 54.3438 33.261L54.3456 33.1923L54.3474 33.1235C54.0405 33.1154 53.8115 33.0311 53.6512 32.8784L53.6038 32.9282ZM54.3456 33.1923L54.3428 33.261C54.6551 33.274 54.9233 33.2134 55.1431 33.0744L55.1063 33.0162L55.0695 32.9581C54.8786 33.0789 54.6397 33.1357 54.3485 33.1235L54.3456 33.1923ZM55.1063 33.0162L55.1439 33.0738C55.3586 32.9337 55.5315 32.7496 55.6625 32.5225L55.6029 32.4882L55.5434 32.4538C55.4229 32.6626 55.2648 32.8306 55.0687 32.9587L55.1063 33.0162ZM55.6029 32.4882L55.6623 32.5229C55.7954 32.2953 55.8983 32.0488 55.971 31.7834L55.9047 31.7652L55.8384 31.747C55.7686 32.0013 55.6703 32.2367 55.5436 32.4534L55.6029 32.4882ZM55.9047 31.7652L55.971 31.7834C56.0431 31.5206 56.0941 31.2658 56.1239 31.0191L56.0556 31.0108L55.9873 31.0026C55.9584 31.242 55.9088 31.4901 55.8384 31.747L55.9047 31.7652ZM61.9832 34.5125L61.9819 34.5812L61.9823 34.5812L61.9832 34.5125ZM59.2925 32.5007L59.2262 32.5191L59.2264 32.5197L59.2925 32.5007ZM59.1793 31.2371L59.1109 31.2305L59.1108 31.232L59.1793 31.2371ZM59.2045 30.9794L59.136 30.9726L59.136 30.9727L59.2045 30.9794ZM59.5377 29.6466L59.4743 29.6199L59.4742 29.6202L59.5377 29.6466ZM60.2543 28.5088L60.2032 28.4627L60.2032 28.4628L60.2543 28.5088ZM61.3168 27.7229L61.2881 27.6604L61.2878 27.6605L61.3168 27.7229ZM62.681 27.4589L62.6792 27.5276L62.6798 27.5277L62.681 27.4589ZM63.888 27.7544L63.854 27.8141L63.8545 27.8144L63.888 27.7544ZM64.6801 28.5025L64.6218 28.539L64.6224 28.5399L64.6801 28.5025ZM65.1265 30.7908L65.1946 30.8L65.1948 30.7982L65.1265 30.7908ZM65.0322 31.4886V31.5574H65.0923L65.1003 31.4978L65.0322 31.4886ZM59.852 31.4886L59.7841 31.4778L59.7714 31.5574H59.852V31.4886ZM60.0343 30.3444L60.0344 30.2757L59.9756 30.2756L59.9664 30.3336L60.0343 30.3444ZM63.5737 30.3507L63.5735 30.4195L63.6315 30.4196L63.6414 30.3625L63.5737 30.3507ZM63.5988 30.2061L63.6666 30.2179L63.6668 30.2165L63.5988 30.2061ZM63.5611 29.5083L63.4947 29.5262L63.495 29.5274L63.5611 29.5083ZM63.2279 28.9802L63.1828 29.0322L63.1843 29.0334L63.2279 28.9802ZM62.5804 28.7602L62.5825 28.6915L62.5823 28.6915L62.5804 28.7602ZM61.8134 28.9551L61.8505 29.013L61.8513 29.0125L61.8134 28.9551ZM61.2916 29.4895L61.2332 29.4531L61.2328 29.4539L61.2916 29.4895ZM60.9773 30.2187L61.0434 30.2379L61.0434 30.2376L60.9773 30.2187ZM60.8201 30.9794L60.7518 30.9713L60.7517 30.9725L60.8201 30.9794ZM60.795 31.2308L60.7266 31.224L60.7265 31.2247L60.795 31.2308ZM60.8139 31.9287L60.7458 31.9386L60.746 31.9398L60.8139 31.9287ZM61.0213 32.5573L60.9606 32.5897L60.9612 32.5907L61.0213 32.5573ZM62.1403 33.2048L62.1382 33.2736L62.1386 33.2736L62.1403 33.2048ZM63.0833 32.9974L63.1148 33.0585L63.1151 33.0584L63.0833 32.9974ZM63.8691 32.4064L63.9207 32.3609L63.8714 32.3051L63.8197 32.3587L63.8691 32.4064ZM64.6298 33.2677L64.6868 33.3062L64.7166 33.2621L64.6814 33.2222L64.6298 33.2677ZM63.9131 33.9781L63.9505 34.0358L63.9511 34.0354L63.9131 33.9781ZM62.9827 34.3867L62.9653 34.3202L62.9651 34.3202L62.9827 34.3867ZM61.9832 34.5125L61.9844 34.4437C61.5274 34.4355 61.1223 34.347 60.7677 34.1799L60.7384 34.2421L60.7091 34.3043C61.0838 34.4809 61.5085 34.5727 61.9819 34.5812L61.9832 34.5125ZM60.7384 34.2421L60.7677 34.1799C60.4119 34.0122 60.1164 33.7838 59.8801 33.4945L59.8269 33.538L59.7736 33.5815C60.0235 33.8874 60.3357 34.1284 60.7091 34.3043L60.7384 34.2421ZM59.8269 33.538L59.8801 33.4945C59.6433 33.2046 59.4694 32.8674 59.3586 32.4818L59.2925 32.5007L59.2264 32.5197C59.342 32.922 59.5242 33.2763 59.7736 33.5815L59.8269 33.538ZM59.2925 32.5007L59.3588 32.4824C59.2521 32.0968 59.2149 31.6836 59.2479 31.2423L59.1793 31.2371L59.1108 31.232C59.0767 31.6876 59.1149 32.1168 59.2262 32.5191L59.2925 32.5007ZM59.1793 31.2371L59.2478 31.2438L59.2729 30.9861L59.2045 30.9794L59.136 30.9727L59.1109 31.2305L59.1793 31.2371ZM59.2045 30.9794L59.2729 30.9862C59.3184 30.5276 59.4278 30.0899 59.6012 29.673L59.5377 29.6466L59.4742 29.6202C59.2955 30.0499 59.1828 30.5008 59.136 30.9726L59.2045 30.9794ZM59.5377 29.6466L59.6011 29.6733C59.7784 29.2526 60.0133 28.8799 60.3055 28.5547L60.2543 28.5088L60.2032 28.4628C59.9003 28.7998 59.6574 29.1857 59.4743 29.6199L59.5377 29.6466ZM60.2543 28.5088L60.3055 28.5548C60.6011 28.2263 60.9477 27.97 61.3457 27.7853L61.3168 27.7229L61.2878 27.6605C60.8728 27.8531 60.5112 28.1206 60.2032 28.4627L60.2543 28.5088ZM61.3168 27.7229L61.3455 27.7854C61.7457 27.6017 62.1899 27.5153 62.6792 27.5276L62.681 27.4589L62.6827 27.3901C62.1746 27.3773 61.7093 27.467 61.2881 27.6604L61.3168 27.7229ZM62.681 27.4589L62.6798 27.5277C63.1446 27.5359 63.535 27.6325 63.854 27.8141L63.888 27.7544L63.922 27.6946C63.5788 27.4991 63.1645 27.3987 62.6822 27.3901L62.681 27.4589ZM63.888 27.7544L63.8545 27.8144C64.1757 27.9933 64.4311 28.2347 64.6218 28.539L64.6801 28.5025L64.7384 28.4659C64.5351 28.1416 64.2625 27.8842 63.9215 27.6943L63.888 27.7544ZM64.6801 28.5025L64.6224 28.5399C64.8182 28.8418 64.9513 29.1851 65.0211 29.5709L65.0887 29.5586L65.1564 29.5464C65.0837 29.1442 64.9443 28.7834 64.7378 28.465L64.6801 28.5025ZM65.0887 29.5586L65.0211 29.5709C65.0911 29.9579 65.1035 30.362 65.0581 30.7834L65.1265 30.7908L65.1948 30.7982C65.2416 30.3646 65.2289 29.9473 65.1564 29.5464L65.0887 29.5586ZM65.1265 30.7908L65.0583 30.7816L64.964 31.4794L65.0322 31.4886L65.1003 31.4978L65.1946 30.8L65.1265 30.7908ZM65.0322 31.4886V31.4198H59.852V31.4886V31.5574H65.0322V31.4886ZM59.852 31.4886L59.9199 31.4994L60.1022 30.3553L60.0343 30.3444L59.9664 30.3336L59.7841 31.4778L59.852 31.4886ZM60.0343 30.3444L60.0342 30.4132L63.5735 30.4195L63.5737 30.3507L63.5738 30.2819L60.0344 30.2757L60.0343 30.3444ZM63.5737 30.3507L63.6414 30.3625L63.6666 30.2179L63.5988 30.2061L63.5311 30.1943L63.5059 30.3389L63.5737 30.3507ZM63.5988 30.2061L63.6668 30.2165C63.7059 29.9604 63.6931 29.7177 63.6272 29.4893L63.5611 29.5083L63.495 29.5274C63.5548 29.7348 63.5672 29.9573 63.5308 30.1958L63.5988 30.2061ZM63.5611 29.5083L63.6275 29.4904C63.5654 29.2596 63.4468 29.0709 63.2715 28.9271L63.2279 28.9802L63.1843 29.0334C63.3359 29.1578 63.4395 29.3211 63.4947 29.5262L63.5611 29.5083ZM63.2279 28.9802L63.273 28.9283C63.0987 28.7769 62.8661 28.7002 62.5825 28.6915L62.5804 28.7602L62.5783 28.829C62.8395 28.837 63.0386 28.907 63.1828 29.0322L63.2279 28.9802ZM62.5804 28.7602L62.5823 28.6915C62.2693 28.6828 61.9991 28.7502 61.7755 28.8977L61.8134 28.9551L61.8513 29.0125C62.0469 28.8834 62.2879 28.8209 62.5785 28.829L62.5804 28.7602ZM61.8134 28.9551L61.7763 28.8972C61.5577 29.0371 61.3767 29.2228 61.2332 29.4531L61.2916 29.4895L61.35 29.5258C61.4832 29.3119 61.65 29.1413 61.8505 29.013L61.8134 28.9551ZM61.2916 29.4895L61.2328 29.4539C61.0953 29.6815 60.9882 29.9303 60.9112 30.1998L60.9773 30.2187L61.0434 30.2376C61.1173 29.9791 61.2197 29.7416 61.3505 29.525L61.2916 29.4895ZM60.9773 30.2187L60.9113 30.1995C60.8349 30.4627 60.7817 30.72 60.7518 30.9713L60.8201 30.9794L60.8884 30.9875C60.9173 30.7443 60.9689 30.4944 61.0434 30.2379L60.9773 30.2187ZM60.8201 30.9794L60.7517 30.9725L60.7266 31.224L60.795 31.2308L60.8634 31.2377L60.8886 30.9862L60.8201 30.9794ZM60.795 31.2308L60.7265 31.2247C60.7051 31.4647 60.7115 31.7027 60.7458 31.9386L60.8139 31.9287L60.8819 31.9188C60.8492 31.6936 60.843 31.4664 60.8635 31.237L60.795 31.2308ZM60.8139 31.9287L60.746 31.9398C60.7848 32.177 60.8562 32.3939 60.9606 32.5897L61.0213 32.5573L61.082 32.525C60.9853 32.3436 60.9183 32.1413 60.8817 31.9176L60.8139 31.9287ZM61.0213 32.5573L60.9612 32.5907C61.0716 32.7895 61.2242 32.9509 61.4182 33.0743L61.4551 33.0162L61.492 32.9582C61.3171 32.8469 61.1806 32.7024 61.0814 32.5239L61.0213 32.5573ZM61.4551 33.0162L61.4182 33.0743C61.6153 33.1997 61.8565 33.2649 62.1382 33.2736L62.1403 33.2048L62.1424 33.1361C61.8794 33.128 61.6637 33.0675 61.492 32.9582L61.4551 33.0162ZM62.1403 33.2048L62.1386 33.2736C62.493 33.2822 62.8188 33.2109 63.1148 33.0585L63.0833 32.9974L63.0518 32.9362C62.7778 33.0773 62.475 33.1442 62.142 33.1361L62.1403 33.2048ZM63.0833 32.9974L63.1151 33.0584C63.4111 32.9039 63.679 32.7024 63.9186 32.4542L63.8691 32.4064L63.8197 32.3587C63.5899 32.5966 63.3339 32.7891 63.0515 32.9364L63.0833 32.9974ZM63.8691 32.4064L63.8176 32.452L64.5783 33.3132L64.6298 33.2677L64.6814 33.2222L63.9207 32.3609L63.8691 32.4064ZM64.6298 33.2677L64.5728 33.2292C64.3851 33.5068 64.1526 33.7371 63.8752 33.9207L63.9131 33.9781L63.9511 34.0354C64.2437 33.8418 64.489 33.5986 64.6868 33.3062L64.6298 33.2677ZM63.9131 33.9781L63.8758 33.9203C63.597 34.1007 63.2936 34.234 62.9653 34.3202L62.9827 34.3867L63.0002 34.4532C63.3424 34.3634 63.6593 34.2243 63.9505 34.0358L63.9131 33.9781ZM62.9827 34.3867L62.9651 34.3202C62.6399 34.4067 62.3129 34.4478 61.984 34.4437L61.9832 34.5125L61.9823 34.5812C62.324 34.5855 62.6634 34.5428 63.0004 34.4532L62.9827 34.3867ZM70.0922 32.9408L70.0242 32.9301L70.0241 32.9312L70.0922 32.9408ZM70.5888 29.7786L70.6568 29.7893L70.6571 29.7872L70.5888 29.7786ZM70.5511 29.2317L70.4848 29.25L70.4854 29.2519L70.5511 29.2317ZM69.759 28.6722L69.7575 28.741L69.7577 28.741L69.759 28.6722ZM69.2121 28.7728L69.1852 28.7095L69.1846 28.7097L69.2121 28.7728ZM68.5645 29.5712L68.5651 29.64L68.6201 29.6395L68.6318 29.5858L68.5645 29.5712ZM66.9426 29.5838L66.874 29.5791L66.8689 29.6531L66.9431 29.6525L66.9426 29.5838ZM67.2632 28.6282L67.3195 28.6678L67.3198 28.6673L67.2632 28.6282ZM67.9799 27.9618L68.015 28.0209L68.0156 28.0206L67.9799 27.9618ZM69.9224 27.4589L69.9207 27.5276L69.9212 27.5277L69.9224 27.4589ZM72.0033 28.559L71.9432 28.5924L71.9433 28.5927L72.0033 28.559ZM72.2171 29.8164L72.2851 29.8275L72.2855 29.8233L72.2171 29.8164ZM71.733 32.7836L71.6651 32.7726L71.665 32.7731L71.733 32.7836ZM71.6513 33.538L71.7199 33.5425L71.7199 33.5425L71.6513 33.538ZM71.7518 34.2736L71.8205 34.2774L71.8213 34.2635L71.8166 34.2504L71.7518 34.2736ZM71.7456 34.3867L71.7458 34.4555L71.8106 34.4552L71.8142 34.3905L71.7456 34.3867ZM70.1425 34.393L70.0767 34.413L70.0915 34.462L70.1427 34.4618L70.1425 34.393ZM70.0356 33.67L69.9668 33.6689V33.67H70.0356ZM70.7774 30.2439L70.8453 30.2551L70.8585 30.1755L70.7778 30.1751L70.7774 30.2439ZM70.614 31.2308L70.6135 31.2996L70.6722 31.3L70.6818 31.2421L70.614 31.2308ZM69.6773 31.2246L69.6777 31.1558H69.6773V31.2246ZM69.0926 31.2874L69.0783 31.2202L69.078 31.2202L69.0926 31.2874ZM68.552 31.4886L68.5839 31.5495L68.5851 31.5489L68.552 31.4886ZM67.9233 32.4002L67.9916 32.4087L67.9916 32.408L67.9233 32.4002ZM68.2439 33.142L68.2067 33.1999L68.2091 33.2013L68.2439 33.142ZM68.6777 33.2551L68.676 33.3239L68.6765 33.3239L68.6777 33.2551ZM69.3567 33.1231L69.383 33.1866L69.384 33.1862L69.3567 33.1231ZM69.935 32.7208L69.8858 32.6727L69.8852 32.6734L69.935 32.7208ZM70.2808 32.1235L70.3417 32.0915L70.2609 31.938L70.2145 32.1051L70.2808 32.1235ZM70.6643 32.8528L70.7287 32.8768L70.7395 32.848L70.7251 32.8208L70.6643 32.8528ZM70.2871 33.5317L70.2327 33.4896L70.2871 33.5317ZM69.7338 34.0661L69.7733 34.1225L69.774 34.1219L69.7338 34.0661ZM69.0486 34.4056L69.0275 34.3401L69.0262 34.3406L69.0486 34.4056ZM68.2816 34.525L68.2801 34.5938L68.2806 34.5938L68.2816 34.525ZM67.2444 34.261L67.2117 34.3215L67.212 34.3217L67.2444 34.261ZM66.5088 33.5632L66.45 33.5988L66.5088 33.5632ZM66.2636 32.5322L66.1949 32.5289L66.1949 32.5292L66.2636 32.5322ZM66.5968 31.4257L66.5402 31.3867L66.5401 31.3868L66.5968 31.4257ZM68.4451 30.3507L68.4319 30.2832L68.4318 30.2833L68.4451 30.3507ZM69.583 30.2376L69.5833 30.1688H69.583V30.2376ZM70.0922 32.9408L70.1601 32.9515L70.6568 29.7893L70.5888 29.7786L70.5209 29.768L70.0242 32.9301L70.0922 32.9408ZM70.5888 29.7786L70.6571 29.7872C70.6832 29.5781 70.6705 29.3858 70.6168 29.2115L70.5511 29.2317L70.4854 29.2519C70.5323 29.4045 70.5447 29.5768 70.5206 29.7701L70.5888 29.7786ZM70.5511 29.2317L70.6174 29.2135C70.5676 29.0324 70.4716 28.8852 70.3292 28.775L70.2871 28.8294L70.245 28.8838C70.3624 28.9747 70.4424 29.0958 70.4848 29.2499L70.5511 29.2317ZM70.2871 28.8294L70.3292 28.775C70.184 28.6626 69.9921 28.6078 69.7603 28.6034L69.759 28.6722L69.7577 28.741C69.9702 28.745 70.1302 28.7949 70.245 28.8838L70.2871 28.8294ZM69.759 28.6722L69.7605 28.6034C69.5545 28.5991 69.3625 28.6341 69.1852 28.7095L69.2121 28.7728L69.239 28.8361C69.3969 28.769 69.5695 28.737 69.7575 28.741L69.759 28.6722ZM69.2121 28.7728L69.1846 28.7097C69.0116 28.7851 68.8647 28.8942 68.7446 29.0365L68.7971 29.0808L68.8497 29.1252C68.9559 28.9993 69.0856 28.9029 69.2395 28.8358L69.2121 28.7728ZM68.7971 29.0808L68.7446 29.0365C68.6233 29.1802 68.5413 29.3542 68.4973 29.5566L68.5645 29.5712L68.6318 29.5858C68.6716 29.4026 68.7446 29.2497 68.8497 29.1252L68.7971 29.0808ZM68.5645 29.5712L68.564 29.5024L66.9421 29.515L66.9426 29.5838L66.9431 29.6525L68.5651 29.64L68.5645 29.5712ZM66.9426 29.5838L67.0112 29.5884C67.0356 29.2305 67.139 28.9244 67.3195 28.6678L67.2632 28.6282L67.207 28.5886C67.0102 28.8684 66.8999 29.1994 66.874 29.5791L66.9426 29.5838ZM67.2632 28.6282L67.3198 28.6673C67.5027 28.4032 67.7342 28.1878 68.015 28.0209L67.9799 27.9618L67.9448 27.9027C67.6472 28.0795 67.401 28.3084 67.2067 28.5891L67.2632 28.6282ZM67.9799 27.9618L68.0156 28.0206C68.2987 27.8483 68.6065 27.721 68.9394 27.6388L68.9229 27.5721L68.9064 27.5053C68.5603 27.5907 68.2395 27.7233 67.9441 27.9031L67.9799 27.9618ZM68.9229 27.5721L68.9394 27.6388C69.2733 27.5564 69.6003 27.5194 69.9207 27.5276L69.9224 27.4589L69.9242 27.3901C69.5908 27.3816 69.2514 27.4201 68.9064 27.5053L68.9229 27.5721ZM69.9224 27.4589L69.9212 27.5277C70.3773 27.5359 70.7816 27.6323 71.1356 27.8155L71.1672 27.7544L71.1988 27.6933C70.8236 27.4992 70.3981 27.3987 69.9237 27.3901L69.9224 27.4589ZM71.1672 27.7544L71.1356 27.8155C71.4886 27.998 71.7572 28.2568 71.9432 28.5924L72.0033 28.559L72.0635 28.5257C71.8639 28.1656 71.5751 27.8879 71.1988 27.6933L71.1672 27.7544ZM72.0033 28.559L71.9433 28.5927C72.1276 28.9211 72.1979 29.3252 72.1486 29.8094L72.2171 29.8164L72.2855 29.8233C72.3368 29.3184 72.2646 28.8843 72.0633 28.5254L72.0033 28.559ZM72.2171 29.8164L72.1492 29.8053L71.6651 32.7726L71.733 32.7836L71.8009 32.7947L72.2849 29.8274L72.2171 29.8164ZM71.733 32.7836L71.665 32.7731C71.627 33.0183 71.5995 33.2718 71.5826 33.5336L71.6513 33.538L71.7199 33.5425C71.7365 33.2845 71.7636 33.0351 71.8009 32.7942L71.733 32.7836ZM71.6513 33.538L71.5826 33.5335C71.5653 33.7983 71.6 34.0529 71.6871 34.2967L71.7518 34.2736L71.8166 34.2504C71.736 34.0248 71.7037 33.7891 71.7199 33.5425L71.6513 33.538ZM71.7518 34.2736L71.6832 34.2697L71.6769 34.3829L71.7456 34.3867L71.8142 34.3905L71.8205 34.2774L71.7518 34.2736ZM71.7456 34.3867L71.7453 34.3179L70.1422 34.3242L70.1425 34.393L70.1427 34.4618L71.7458 34.4555L71.7456 34.3867ZM70.1425 34.393L70.2083 34.373C70.139 34.1449 70.1044 33.9106 70.1044 33.67H70.0356H69.9668C69.9668 33.924 70.0034 34.1718 70.0767 34.413L70.1425 34.393ZM70.0356 33.67L70.1044 33.6712C70.1085 33.4267 70.1272 33.1864 70.1603 32.9504L70.0922 32.9408L70.0241 32.9312C69.9901 33.173 69.9711 33.4189 69.9668 33.6689L70.0356 33.67ZM70.7774 30.2439L70.7096 30.2326L70.5461 31.2196L70.614 31.2308L70.6818 31.2421L70.8453 30.2551L70.7774 30.2439ZM70.614 31.2308L70.6144 31.1621L69.6777 31.1558L69.6773 31.2246L69.6768 31.2933L70.6135 31.2996L70.614 31.2308ZM69.6773 31.2246V31.1558C69.4795 31.1558 69.2798 31.1773 69.0783 31.2202L69.0926 31.2874L69.1069 31.3547C69.2994 31.3137 69.4895 31.2933 69.6773 31.2933V31.2246ZM69.0926 31.2874L69.078 31.2202C68.8789 31.2635 68.6925 31.3328 68.5188 31.4283L68.552 31.4886L68.5851 31.5489C68.7468 31.46 68.9207 31.3952 69.1072 31.3546L69.0926 31.2874ZM68.552 31.4886L68.52 31.4277C68.3433 31.5204 68.1951 31.6466 68.0757 31.8057L68.1308 31.8469L68.1858 31.8882C68.2928 31.7455 68.4253 31.6328 68.5839 31.5495L68.552 31.4886ZM68.1308 31.8469L68.0757 31.8057C67.9542 31.9678 67.8813 32.1642 67.855 32.3923L67.9233 32.4002L67.9916 32.408C68.0156 32.2002 68.0811 32.0278 68.1858 31.8882L68.1308 31.8469ZM67.9233 32.4002L67.8551 32.3916C67.8329 32.5693 67.8523 32.7295 67.9176 32.8693L67.9799 32.8402L68.0422 32.8111C67.9901 32.6995 67.9719 32.5663 67.9916 32.4087L67.9233 32.4002ZM67.9799 32.8402L67.9176 32.8693C67.9818 33.0069 68.0785 33.1174 68.2067 33.1998L68.2439 33.142L68.2811 33.0841C68.1746 33.0157 68.0954 32.925 68.0422 32.8111L67.9799 32.8402ZM68.2439 33.142L68.2091 33.2013C68.3425 33.2795 68.4989 33.3195 68.676 33.3239L68.6777 33.2551L68.6794 33.1864C68.5212 33.1824 68.3885 33.147 68.2787 33.0826L68.2439 33.142ZM68.6777 33.2551L68.6765 33.3239C68.9168 33.3283 69.1525 33.2823 69.383 33.1866L69.3567 33.1231L69.3303 33.0596C69.1165 33.1483 68.8996 33.1904 68.679 33.1864L68.6777 33.2551ZM69.3567 33.1231L69.384 33.1862C69.6144 33.0862 69.8149 32.9468 69.9849 32.7682L69.935 32.7208L69.8852 32.6734C69.7282 32.8384 69.5431 32.9672 69.3293 33.06L69.3567 33.1231ZM69.935 32.7208L69.9842 32.7688C70.1598 32.5889 70.281 32.3797 70.3471 32.142L70.2808 32.1235L70.2145 32.1051C70.1548 32.3201 70.0455 32.509 69.8858 32.6727L69.935 32.7208ZM70.2808 32.1235L70.2199 32.1556L70.6034 32.8848L70.6643 32.8528L70.7251 32.8208L70.3417 32.0915L70.2808 32.1235ZM70.6643 32.8528L70.5998 32.8288C70.51 33.0696 70.3877 33.2898 70.2327 33.4896L70.2871 33.5317L70.3414 33.5739C70.505 33.3629 70.6341 33.1305 70.7287 32.8768L70.6643 32.8528ZM70.2871 33.5317L70.2327 33.4896C70.0775 33.6898 69.8978 33.8633 69.6937 34.0103L69.7338 34.0661L69.774 34.1219C69.989 33.9672 70.1781 33.7844 70.3414 33.5739L70.2871 33.5317ZM69.7338 34.0661L69.6944 34.0098C69.4906 34.1524 69.2684 34.2626 69.0275 34.3401L69.0486 34.4056L69.0697 34.471C69.3234 34.3893 69.558 34.2731 69.7733 34.1224L69.7338 34.0661ZM69.0486 34.4056L69.0262 34.3406C68.791 34.4217 68.5433 34.4603 68.2827 34.4563L68.2816 34.525L68.2806 34.5938C68.5564 34.5981 68.8201 34.5571 69.071 34.4706L69.0486 34.4056ZM68.2816 34.525L68.2832 34.4563C67.9161 34.4481 67.581 34.3626 67.2767 34.2003L67.2444 34.261L67.212 34.3217C67.5364 34.4947 67.8928 34.5852 68.2801 34.5938L68.2816 34.525ZM67.2444 34.261L67.2771 34.2005C66.9775 34.0386 66.7414 33.8145 66.5677 33.5275L66.5088 33.5632L66.45 33.5988C66.6366 33.907 66.8909 34.1481 67.2117 34.3215L67.2444 34.261ZM66.5088 33.5632L66.5677 33.5275C66.3953 33.243 66.3161 32.913 66.3324 32.5351L66.2636 32.5322L66.1949 32.5292C66.1777 32.9308 66.2619 33.2883 66.45 33.5988L66.5088 33.5632ZM66.2636 32.5322L66.3323 32.5354C66.3529 32.1008 66.4612 31.7451 66.6536 31.4646L66.5968 31.4257L66.5401 31.3868C66.3301 31.6931 66.2164 32.0751 66.1949 32.5289L66.2636 32.5322ZM66.5968 31.4257L66.6534 31.4648C66.8525 31.1764 67.1082 30.9491 67.4213 30.7823L67.389 30.7216L67.3566 30.6609C67.0243 30.8379 66.7519 31.0799 66.5402 31.3867L66.5968 31.4257ZM67.389 30.7216L67.4213 30.7823C67.7377 30.6139 68.0833 30.4924 68.4584 30.4182L68.4451 30.3507L68.4318 30.2833C68.0442 30.3599 67.6857 30.4857 67.3566 30.6609L67.389 30.7216ZM68.4451 30.3507L68.4583 30.4182C68.8398 30.3436 69.2146 30.3063 69.583 30.3063V30.2376V30.1688C69.2053 30.1688 68.8216 30.207 68.4319 30.2832L68.4451 30.3507ZM69.583 30.2376L69.5826 30.3063L70.7771 30.3126L70.7774 30.2439L70.7778 30.1751L69.5833 30.1688L69.583 30.2376ZM75.1711 24.7305V24.6617H75.1132L75.1033 24.7187L75.1711 24.7305ZM76.793 24.7305L76.8608 24.7422L76.8747 24.6617H76.793V24.7305ZM75.366 32.9722L75.4325 32.9912L75.4337 32.984L75.366 32.9722ZM74.9636 34.3867V34.4555H75.0156L75.0298 34.4055L74.9636 34.3867ZM73.4926 34.3867L73.4248 34.3749L73.4108 34.4555H73.4926V34.3867ZM79.9489 30.8788L79.8805 30.8714L79.8804 30.8726L79.9489 30.8788ZM79.9363 31.0171L80.0046 31.0253L80.0048 31.0233L79.9363 31.0171ZM79.0813 33.4186L79.1373 33.4586L79.1375 33.4583L79.0813 33.4186ZM78.1761 34.2358L78.2099 34.2957L78.2101 34.2956L78.1761 34.2358ZM76.9062 34.5187L76.9042 34.5875L76.9044 34.5875L76.9062 34.5187ZM75.1648 33.3746L75.1025 33.4037L75.1028 33.4044L75.1648 33.3746ZM74.7813 31.1743L74.7128 31.1659L74.7126 31.1711L74.7813 31.1743ZM74.8253 30.8159L74.7575 30.8041L74.757 30.8075L74.8253 30.8159ZM75.1585 29.6403L75.0944 29.6154L75.1585 29.6403ZM75.762 28.5402L75.707 28.4989L75.7067 28.4994L75.762 28.5402ZM76.6547 27.7355L76.6203 27.676L76.62 27.6761L76.6547 27.7355ZM77.8492 27.4526L77.8472 27.5214L77.8479 27.5214L77.8492 27.4526ZM78.9933 27.7858L78.9528 27.8414L78.9533 27.8418L78.9933 27.7858ZM79.6597 28.6031L79.597 28.6313L79.5973 28.6319L79.6597 28.6031ZM79.9489 29.7032L79.8804 29.7097L79.8805 29.7104L79.9489 29.7032ZM78.3144 31.0108L78.3827 31.0191L78.3829 31.017L78.3144 31.0108ZM78.3269 30.8725L78.2587 30.864L78.2584 30.8663L78.3269 30.8725ZM78.2829 29.5335L78.2162 29.5501L78.2163 29.5505L78.2829 29.5335ZM77.9812 28.9991L77.9325 29.0478L77.934 29.0491L77.9812 28.9991ZM77.3525 28.7728L77.3491 28.8415L77.3504 28.8415L77.3525 28.7728ZM76.6673 28.8985L76.6959 28.9611L76.697 28.9605L76.6673 28.8985ZM75.7809 29.8415L75.7184 29.8128L75.7179 29.8138L75.7809 29.8415ZM75.5734 30.4953L75.5059 30.4816L75.5054 30.4854L75.5734 30.4953ZM75.4288 31.4886L75.3605 31.4787L75.3602 31.4844L75.4288 31.4886ZM75.498 32.287L75.4311 32.3032L75.4314 32.3044L75.498 32.287ZM75.8626 32.9282L75.8146 32.9774L75.8152 32.978L75.8626 32.9282ZM76.6044 33.1923L76.6073 33.1235L76.6062 33.1235L76.6044 33.1923ZM77.3651 33.0162L77.4019 33.0744L77.4027 33.0738L77.3651 33.0162ZM77.8617 32.4882L77.8024 32.4534L77.8022 32.4538L77.8617 32.4882ZM75.1711 24.7305V24.7993H76.793V24.7305V24.6617H75.1711V24.7305ZM76.793 24.7305L76.7252 24.7188L75.2982 32.9605L75.366 32.9722L75.4337 32.984L76.8608 24.7422L76.793 24.7305ZM75.366 32.9722L75.2998 32.9534L74.8975 34.3679L74.9636 34.3867L75.0298 34.4055L75.4321 32.9911L75.366 32.9722ZM74.9636 34.3867V34.3179H73.4926V34.3867V34.4555H74.9636V34.3867ZM73.4926 34.3867L73.5603 34.3985L75.2388 24.7423L75.1711 24.7305L75.1033 24.7187L73.4248 34.3749L73.4926 34.3867ZM79.9489 30.8788L79.8804 30.8726L79.8678 31.0109L79.9363 31.0171L80.0048 31.0233L80.0174 30.885L79.9489 30.8788ZM79.9363 31.0171L79.868 31.0089C79.8183 31.4233 79.725 31.8379 79.5881 32.2529L79.6534 32.2744L79.7187 32.296C79.8584 31.8727 79.9537 31.4491 80.0046 31.0253L79.9363 31.0171ZM79.6534 32.2744L79.5881 32.2529C79.4518 32.6658 79.2641 33.041 79.0252 33.3789L79.0813 33.4186L79.1375 33.4583C79.3847 33.1088 79.5784 32.7212 79.7187 32.296L79.6534 32.2744ZM79.0813 33.4186L79.0254 33.3785C78.7881 33.71 78.4938 33.9757 78.142 34.1761L78.1761 34.2358L78.2101 34.2956C78.5792 34.0853 78.8884 33.8061 79.1373 33.4586L79.0813 33.4186ZM78.1761 34.2358L78.1422 34.176C77.7988 34.3699 77.3883 34.4623 76.9079 34.45L76.9062 34.5187L76.9044 34.5875C77.4047 34.6003 77.8408 34.5041 78.2099 34.2957L78.1761 34.2358ZM76.9062 34.5187L76.9082 34.45C76.4873 34.4377 76.1434 34.3297 75.8719 34.1301L75.8312 34.1855L75.7904 34.241C76.089 34.4605 76.4616 34.5746 76.9042 34.5875L76.9062 34.5187ZM75.8312 34.1855L75.8719 34.1301C75.5963 33.9275 75.3813 33.6661 75.2268 33.3448L75.1648 33.3746L75.1028 33.4044C75.2667 33.7452 75.496 34.0245 75.7904 34.241L75.8312 34.1855ZM75.1648 33.3746L75.2271 33.3454C75.075 33.0207 74.9699 32.6687 74.9122 32.2892L74.8442 32.2996L74.7762 32.3099C74.8358 32.7016 74.9445 33.0663 75.1025 33.4037L75.1648 33.3746ZM74.8442 32.2996L74.9122 32.2892C74.8541 31.9078 74.8335 31.5372 74.85 31.1774L74.7813 31.1743L74.7126 31.1711C74.6956 31.5405 74.7169 31.9202 74.7762 32.3099L74.8442 32.2996ZM74.7813 31.1743L74.8496 31.1827L74.8936 30.8243L74.8253 30.8159L74.757 30.8075L74.713 31.1659L74.7813 31.1743ZM74.8253 30.8159L74.8931 30.8277C74.9593 30.447 75.069 30.0596 75.2226 29.6653L75.1585 29.6403L75.0944 29.6154C74.9378 30.0174 74.8255 30.4137 74.7575 30.8041L74.8253 30.8159ZM75.1585 29.6403L75.2226 29.6653C75.3755 29.2727 75.5738 28.9113 75.8174 28.581L75.762 28.5402L75.7067 28.4994C75.4557 28.8397 75.2516 29.2117 75.0944 29.6154L75.1585 29.6403ZM75.762 28.5402L75.817 28.5815C76.0633 28.2531 76.3541 27.9912 76.6895 27.7949L76.6547 27.7355L76.62 27.6761C76.268 27.8822 75.9636 28.1567 75.707 28.4989L75.762 28.5402ZM76.6547 27.7355L76.6891 27.795C77.0247 27.601 77.41 27.5091 77.8472 27.5214L77.8492 27.4526L77.8511 27.3839C77.3914 27.371 76.9804 27.4677 76.6203 27.676L76.6547 27.7355ZM77.8492 27.4526L77.8479 27.5214C78.3073 27.5296 78.6738 27.6381 78.9528 27.8414L78.9933 27.7858L79.0338 27.7302C78.7261 27.506 78.3298 27.3924 77.8504 27.3838L77.8492 27.4526ZM78.9933 27.7858L78.9533 27.8418C79.2366 28.0441 79.451 28.3069 79.597 28.6313L79.6597 28.6031L79.7224 28.5748C79.5667 28.2287 79.3368 27.9466 79.0333 27.7298L78.9933 27.7858ZM79.6597 28.6031L79.5973 28.6319C79.7488 28.9596 79.8434 29.3187 79.8804 29.7097L79.9489 29.7032L80.0174 29.6967C79.979 29.2915 79.8807 28.9171 79.7221 28.5742L79.6597 28.6031ZM79.9489 29.7032L79.8805 29.7104C79.9219 30.1038 79.9219 30.4908 79.8805 30.8714L79.9489 30.8788L80.0173 30.8862C80.0597 30.4956 80.0597 30.0989 80.0173 29.696L79.9489 29.7032ZM78.3144 31.0108L78.3829 31.017L78.3954 30.8787L78.3269 30.8725L78.2584 30.8663L78.2459 31.0046L78.3144 31.0108ZM78.3269 30.8725L78.3952 30.881C78.4207 30.6766 78.4334 30.4537 78.4334 30.2124H78.3647H78.2959C78.2959 30.4489 78.2834 30.6661 78.2587 30.864L78.3269 30.8725ZM78.3647 30.2124H78.4334C78.4334 29.9683 78.4056 29.7362 78.3496 29.5165L78.2829 29.5335L78.2163 29.5505C78.2692 29.7582 78.2959 29.9788 78.2959 30.2124H78.3647ZM78.2829 29.5335L78.3497 29.5168C78.2924 29.2876 78.1857 29.0974 78.0284 28.9491L77.9812 28.9991L77.934 29.0491C78.07 29.1774 78.1645 29.3435 78.2162 29.5501L78.2829 29.5335ZM77.9812 28.9991L78.0298 28.9505C77.8709 28.7916 77.6421 28.7128 77.3546 28.704L77.3525 28.7728L77.3504 28.8415C77.6162 28.8496 77.8064 28.9216 77.9325 29.0477L77.9812 28.9991ZM77.3525 28.7728L77.3559 28.7041C77.0905 28.691 76.8505 28.7345 76.6376 28.8365L76.6673 28.8985L76.697 28.9605C76.8864 28.8698 77.1032 28.8294 77.3491 28.8415L77.3525 28.7728ZM76.6673 28.8985L76.6386 28.836C76.429 28.9321 76.2473 29.0655 76.0943 29.2361L76.1455 29.282L76.1967 29.3279C76.337 29.1716 76.5033 29.0494 76.6959 28.961L76.6673 28.8985ZM76.1455 29.282L76.0943 29.2361C75.9428 29.4049 75.8175 29.5973 75.7184 29.8128L75.7809 29.8415L75.8434 29.8703C75.937 29.6666 76.0548 29.486 76.1967 29.3279L76.1455 29.282ZM75.7809 29.8415L75.7179 29.8138C75.6237 30.0279 75.5531 30.2505 75.506 30.4816L75.5734 30.4953L75.6408 30.509C75.6859 30.2875 75.7536 30.0742 75.8438 29.8692L75.7809 29.8415ZM75.5734 30.4953L75.5054 30.4854L75.3608 31.4787L75.4288 31.4886L75.4969 31.4985L75.6415 30.5052L75.5734 30.4953ZM75.4288 31.4886L75.3602 31.4844C75.343 31.7635 75.3666 32.0365 75.4311 32.3032L75.498 32.287L75.5648 32.2708C75.5036 32.0178 75.4811 31.7585 75.4975 31.4928L75.4288 31.4886ZM75.498 32.287L75.4314 32.3044C75.5014 32.5712 75.6289 32.7962 75.8146 32.9774L75.8626 32.9282L75.9106 32.879C75.7442 32.7165 75.6286 32.5141 75.5645 32.2695L75.498 32.287ZM75.8626 32.9282L75.8152 32.978C76.007 33.1607 76.2725 33.2523 76.6026 33.261L76.6044 33.1923L76.6062 33.1235C76.2993 33.1154 76.0703 33.0311 75.91 32.8784L75.8626 32.9282ZM76.6044 33.1923L76.6016 33.261C76.9139 33.274 77.1821 33.2134 77.4019 33.0744L77.3651 33.0162L77.3283 32.9581C77.1374 33.0789 76.8985 33.1357 76.6073 33.1235L76.6044 33.1923ZM77.3651 33.0162L77.4027 33.0738C77.6173 32.9337 77.7903 32.7496 77.9213 32.5225L77.8617 32.4882L77.8022 32.4538C77.6817 32.6626 77.5236 32.8306 77.3275 32.9587L77.3651 33.0162ZM77.8617 32.4882L77.9211 32.5229C78.0542 32.2953 78.1571 32.0488 78.2298 31.7834L78.1635 31.7652L78.0972 31.747C78.0274 32.0013 77.9291 32.2367 77.8024 32.4534L77.8617 32.4882ZM78.1635 31.7652L78.2298 31.7834C78.3019 31.5206 78.3529 31.2658 78.3827 31.0191L78.3144 31.0108L78.2461 31.0026C78.2172 31.242 78.1676 31.4901 78.0972 31.747L78.1635 31.7652ZM81.4256 31.0925L81.3574 31.0828L81.357 31.0868L81.4256 31.0925ZM81.4444 30.9605L81.5125 30.9703L81.5128 30.9677L81.4444 30.9605ZM81.7902 29.6089L81.727 29.5817L81.7269 29.582L81.7902 29.6089ZM82.5131 28.4773L82.4626 28.4307L82.4623 28.431L82.5131 28.4773ZM83.5819 27.7166L83.6095 27.7796L83.6098 27.7795L83.5819 27.7166ZM84.9649 27.4589L84.9632 27.5276L84.9637 27.5277L84.9649 27.4589ZM86.2222 27.7606L86.1892 27.821L86.19 27.8214L86.2222 27.7606ZM87.0898 28.5276L87.0331 28.5666L87.0337 28.5674L87.0898 28.5276ZM87.5613 29.6215L87.494 29.6359L87.4942 29.6367L87.5613 29.6215ZM87.6367 30.9102L87.5682 30.9039L87.5682 30.904L87.6367 30.9102ZM87.6241 31.0485L87.6925 31.0564L87.6926 31.0548L87.6241 31.0485ZM87.2658 32.3939L87.3288 32.4216L87.3289 32.4213L87.2658 32.3939ZM84.0974 34.5125L84.0991 34.4437L84.0986 34.4437L84.0974 34.5125ZM82.84 34.217L82.8076 34.2776L82.8079 34.2778L82.84 34.217ZM81.9725 33.4626L81.9161 33.5019L81.9167 33.5028L81.9725 33.4626ZM81.501 32.375L81.4338 32.3896L81.4339 32.3902L81.501 32.375ZM83.0601 30.9605L82.9917 30.9524L82.9916 30.9543L83.0601 30.9605ZM83.0475 31.0988L82.979 31.0926L82.9789 31.0935L83.0475 31.0988ZM83.0349 31.7841L82.9662 31.7864L82.9662 31.7876L83.0349 31.7841ZM83.5253 32.9974L83.4808 33.0499L83.4816 33.0506L83.5253 32.9974ZM84.1854 33.2111L84.1833 33.2799L84.1834 33.2799L84.1854 33.2111ZM84.9523 33.0351L84.9872 33.0944L84.9875 33.0942L84.9523 33.0351ZM85.493 32.5196L85.5502 32.5578L85.5505 32.5572L85.493 32.5196ZM86.0022 31.0423L86.0705 31.0504L86.0707 31.0488L86.0022 31.0423ZM86.0148 30.9102L85.9463 30.9035L85.9463 30.9037L86.0148 30.9102ZM85.8953 29.5272L85.8303 29.5497L85.8305 29.5501L85.8953 29.5272ZM85.537 28.9928L85.4918 29.0447L85.4926 29.0453L85.537 28.9928ZM84.8706 28.7665L84.8677 28.8352L84.8686 28.8353L84.8706 28.7665ZM84.0974 28.9488L84.0613 28.8902L84.0608 28.8906L84.0974 28.9488ZM83.2235 30.1998L83.158 30.179L83.1578 30.1797L83.2235 30.1998ZM81.4256 31.0925L81.4936 31.1023L81.5125 30.9703L81.4444 30.9605L81.3763 30.9508L81.3575 31.0828L81.4256 31.0925ZM81.4444 30.9605L81.5128 30.9677C81.5624 30.4964 81.676 30.0526 81.8535 29.6358L81.7902 29.6089L81.7269 29.582C81.5439 30.0118 81.427 30.469 81.376 30.9533L81.4444 30.9605ZM81.7902 29.6089L81.8533 29.6361C82.0349 29.2153 82.2718 28.8446 82.564 28.5236L82.5131 28.4773L82.4623 28.431C82.1593 28.7638 81.9143 29.1476 81.727 29.5817L81.7902 29.6089ZM82.5131 28.4773L82.5637 28.524C82.8589 28.2041 83.2074 27.9561 83.6095 27.7796L83.5819 27.7166L83.5542 27.6537C83.1349 27.8377 82.7708 28.0967 82.4626 28.4307L82.5131 28.4773ZM83.5819 27.7166L83.6098 27.7795C84.0143 27.5997 84.4651 27.5153 84.9632 27.5276L84.9649 27.4589L84.9666 27.3901C84.4505 27.3773 83.9792 27.4648 83.5539 27.6538L83.5819 27.7166ZM84.9649 27.4589L84.9637 27.5277C85.4411 27.5359 85.8488 27.6346 86.1892 27.821L86.2222 27.7606L86.2553 27.7003C85.8916 27.5012 85.4611 27.3987 84.9661 27.3901L84.9649 27.4589ZM86.2222 27.7606L86.19 27.8214C86.5368 28.005 86.8175 28.2533 87.0331 28.5666L87.0898 28.5276L87.1464 28.4886C86.9178 28.1565 86.6201 27.8935 86.2544 27.6999L86.2222 27.7606ZM87.0898 28.5276L87.0337 28.5674C87.2542 28.8778 87.4078 29.2336 87.494 29.6359L87.5613 29.6215L87.6285 29.6071C87.5387 29.1879 87.378 28.8145 87.1458 28.4878L87.0898 28.5276ZM87.5613 29.6215L87.4942 29.6367C87.5847 30.0356 87.6095 30.4578 87.5682 30.9039L87.6367 30.9102L87.7052 30.9166C87.7477 30.4574 87.7223 30.0205 87.6283 29.6063L87.5613 29.6215ZM87.6367 30.9102L87.5682 30.904L87.5556 31.0423L87.6241 31.0485L87.6926 31.0548L87.7052 30.9165L87.6367 30.9102ZM87.6241 31.0485L87.5558 31.0407C87.5021 31.5077 87.3843 31.9495 87.2027 32.3664L87.2658 32.3939L87.3289 32.4213C87.5161 31.9916 87.6372 31.5365 87.6925 31.0564L87.6241 31.0485ZM87.2658 32.3939L87.2028 32.3662C87.0214 32.7784 86.7826 33.1428 86.4863 33.4596L86.5366 33.5066L86.5868 33.5536C86.894 33.225 87.1413 32.8475 87.3288 32.4216L87.2658 32.3939ZM86.5366 33.5066L86.4863 33.4596C86.191 33.7754 85.8425 34.0215 85.4402 34.198L85.4678 34.261L85.4955 34.324C85.9146 34.1401 86.2786 33.8832 86.5868 33.5536L86.5366 33.5066ZM85.4678 34.261L85.4402 34.198C85.0398 34.3737 84.5931 34.456 84.0991 34.4437L84.0974 34.5125L84.0956 34.5812C84.6074 34.594 85.0744 34.5087 85.4955 34.324L85.4678 34.261ZM84.0974 34.5125L84.0986 34.4437C83.6253 34.4355 83.2172 34.3388 82.8722 34.1562L82.84 34.217L82.8079 34.2778C83.1754 34.4723 83.6055 34.5727 84.0962 34.5812L84.0974 34.5125ZM82.84 34.217L82.8725 34.1564C82.5294 33.9725 82.2483 33.728 82.0283 33.4224L81.9725 33.4626L81.9167 33.5028C82.1493 33.8259 82.4466 34.0842 82.8076 34.2776L82.84 34.217ZM81.9725 33.4626L82.0289 33.4232C81.8122 33.1125 81.6585 32.7583 81.5681 32.3598L81.501 32.375L81.4339 32.3902C81.5279 32.8048 81.6885 33.1756 81.9161 33.5019L81.9725 33.4626ZM81.501 32.375L81.5682 32.3605C81.4818 31.9611 81.4569 31.5405 81.4941 31.0983L81.4256 31.0925L81.357 31.0868C81.3188 31.5415 81.3442 31.9758 81.4338 32.3896L81.501 32.375ZM83.0601 30.9605L82.9916 30.9543L82.979 31.0926L83.0475 31.0988L83.116 31.1051L83.1286 30.9668L83.0601 30.9605ZM83.0475 31.0988L82.9789 31.0935C82.9619 31.3101 82.9577 31.5411 82.9662 31.7864L83.0349 31.7841L83.1037 31.7817C83.0954 31.5409 83.0995 31.3151 83.1161 31.1042L83.0475 31.0988ZM83.0349 31.7841L82.9662 31.7876C82.9791 32.0368 83.0243 32.2718 83.1021 32.4922L83.1669 32.4693L83.2318 32.4464C83.1587 32.2393 83.1159 32.0175 83.1036 31.7805L83.0349 31.7841ZM83.1669 32.4693L83.1021 32.4922C83.1813 32.7167 83.3075 32.9032 83.4809 33.0499L83.5253 32.9974L83.5697 32.9449C83.4161 32.8149 83.3034 32.6494 83.2318 32.4464L83.1669 32.4693ZM83.5253 32.9974L83.4816 33.0506C83.66 33.1969 83.8962 33.2712 84.1833 33.2799L84.1854 33.2111L84.1875 33.1424C83.9213 33.1343 83.7174 33.0661 83.5689 32.9442L83.5253 32.9974ZM84.1854 33.2111L84.1834 33.2799C84.4913 33.2885 84.7603 33.2279 84.9872 33.0944L84.9523 33.0351L84.9175 32.9758C84.7169 33.0938 84.4746 33.1505 84.1873 33.1424L84.1854 33.2111ZM84.9523 33.0351L84.9875 33.0942C85.2144 32.9589 85.4021 32.7799 85.5502 32.5578L85.493 32.5196L85.4358 32.4814C85.2989 32.6868 85.1261 32.8514 84.9171 32.976L84.9523 33.0351ZM85.493 32.5196L85.5505 32.5572C85.6966 32.3339 85.8123 32.0894 85.8979 31.824L85.8325 31.8029L85.767 31.7818C85.685 32.0361 85.5744 32.2694 85.4354 32.482L85.493 32.5196ZM85.8325 31.8029L85.8979 31.824C85.983 31.5604 86.0406 31.3024 86.0705 31.0504L86.0022 31.0423L85.9339 31.0341C85.9051 31.2766 85.8496 31.5258 85.767 31.7818L85.8325 31.8029ZM86.0022 31.0423L86.0707 31.0488L86.0832 30.9168L86.0148 30.9102L85.9463 30.9037L85.9337 31.0357L86.0022 31.0423ZM86.0148 30.9102L86.0832 30.9169C86.1045 30.6993 86.1087 30.4654 86.096 30.2152L86.0273 30.2187L85.9587 30.2222C85.9711 30.4666 85.9669 30.6936 85.9463 30.9035L86.0148 30.9102ZM86.0273 30.2187L86.096 30.2152C86.0831 29.9619 86.038 29.7248 85.9602 29.5043L85.8953 29.5272L85.8305 29.5501C85.9035 29.757 85.9464 29.9809 85.9587 30.2222L86.0273 30.2187ZM85.8953 29.5272L85.9603 29.5047C85.8812 29.276 85.755 29.0872 85.5814 28.9403L85.537 28.9928L85.4926 29.0453C85.6459 29.175 85.7586 29.3425 85.8303 29.5497L85.8953 29.5272ZM85.537 28.9928L85.5822 28.941C85.4036 28.7853 85.1646 28.7065 84.8727 28.6978L84.8706 28.7665L84.8686 28.8353C85.1382 28.8433 85.3435 28.9154 85.4918 29.0447L85.537 28.9928ZM84.8706 28.7665L84.8735 28.6978C84.5645 28.6847 84.2927 28.7478 84.0613 28.8902L84.0974 28.9488L84.1334 29.0074C84.3378 28.8816 84.5815 28.8231 84.8677 28.8352L84.8706 28.7665ZM84.0974 28.9488L84.0608 28.8906C83.8384 29.0301 83.6532 29.2133 83.5054 29.4393L83.563 29.4769L83.6206 29.5145C83.7578 29.3046 83.9288 29.1357 84.1339 29.0071L84.0974 28.9488ZM83.563 29.4769L83.5054 29.4393C83.3593 29.6627 83.2436 29.9094 83.158 30.179L83.2235 30.1998L83.2891 30.2207C83.3711 29.9622 83.4817 29.7269 83.6206 29.5145L83.563 29.4769ZM83.2235 30.1998L83.1578 30.1797C83.077 30.4431 83.0216 30.7007 82.9918 30.9524L83.0601 30.9605L83.1284 30.9686C83.1572 30.7258 83.2107 30.4763 83.2893 30.22L83.2235 30.1998ZM91.0056 27.5846L91.0698 27.5599L91.0528 27.5158H91.0056V27.5846ZM91.8355 29.7346L91.7713 29.7594L91.8173 29.8785L91.8915 29.7746L91.8355 29.7346ZM93.3694 27.5846V27.5158H93.334L93.3134 27.5447L93.3694 27.5846ZM95.2114 27.5846L95.2667 27.6255L95.3476 27.5158H95.2114V27.5846ZM92.6967 30.992L92.6414 30.9511L92.6181 30.9827L92.6335 31.0189L92.6967 30.992ZM94.1427 34.3867V34.4555H94.2467L94.2059 34.3598L94.1427 34.3867ZM92.4704 34.3867L92.4066 34.4124L92.424 34.4555H92.4704V34.3867ZM91.5589 32.1235L91.6227 32.0978L91.5757 31.9812L91.5028 32.0837L91.5589 32.1235ZM89.9495 34.3867V34.4555H89.985L90.0055 34.4266L89.9495 34.3867ZM88.1075 34.3867L88.0521 34.346L87.9715 34.4555H88.1075V34.3867ZM90.7165 30.8411L90.7719 30.8818L90.7951 30.8503L90.7798 30.8142L90.7165 30.8411ZM89.3334 27.5846V27.5158H89.2295L89.2701 27.6115L89.3334 27.5846ZM91.0056 27.5846L90.9415 27.6094L91.7713 29.7594L91.8355 29.7346L91.8996 29.7099L91.0698 27.5599L91.0056 27.5846ZM91.8355 29.7346L91.8915 29.7746L93.4254 27.6246L93.3694 27.5846L93.3134 27.5447L91.7795 29.6947L91.8355 29.7346ZM93.3694 27.5846V27.6534H95.2114V27.5846V27.5158H93.3694V27.5846ZM95.2114 27.5846L95.156 27.5438L92.6414 30.9511L92.6967 30.992L92.7521 31.0328L95.2667 27.6255L95.2114 27.5846ZM92.6967 30.992L92.6335 31.0189L94.0794 34.4137L94.1427 34.3867L94.2059 34.3598L92.76 30.965L92.6967 30.992ZM94.1427 34.3867V34.3179H92.4704V34.3867V34.4555H94.1427V34.3867ZM92.4704 34.3867L92.5342 34.361L91.6227 32.0978L91.5589 32.1235L91.4951 32.1492L92.4066 34.4124L92.4704 34.3867ZM91.5589 32.1235L91.5028 32.0837L89.8934 34.3469L89.9495 34.3867L90.0055 34.4266L91.6149 32.1634L91.5589 32.1235ZM89.9495 34.3867V34.3179H88.1075V34.3867V34.4555H89.9495V34.3867ZM88.1075 34.3867L88.1629 34.4275L90.7719 30.8818L90.7165 30.8411L90.6611 30.8003L88.0521 34.346L88.1075 34.3867ZM90.7165 30.8411L90.7798 30.8142L89.3967 27.5577L89.3334 27.5846L89.2701 27.6115L90.6532 30.868L90.7165 30.8411ZM89.3334 27.5846V27.6534H91.0056V27.5846V27.5158H89.3334V27.5846ZM95.7828 33.6009H95.8516L95.8515 33.5998L95.7828 33.6009ZM96.7132 32.6768V32.7456L96.7143 32.7455L96.7132 32.6768ZM97.3607 32.9157L97.3139 32.9661L97.3152 32.9672L97.3607 32.9157ZM97.6373 33.5443L97.7061 33.5432V33.5432L97.6373 33.5443ZM97.367 34.2044L97.3201 34.1541L97.3195 34.1546L97.367 34.2044ZM96.7069 34.4622V34.3934L96.7058 34.3934L96.7069 34.4622ZM96.0531 34.2296L96.0075 34.2811L96.0081 34.2816L96.0531 34.2296ZM95.7828 33.6009L95.8515 33.5998C95.8476 33.3536 95.9289 33.1521 96.0949 32.99L96.0468 32.9408L95.9987 32.8916C95.8043 33.0815 95.7095 33.3201 95.714 33.602L95.7828 33.6009ZM96.0468 32.9408L96.0949 32.99C96.2616 32.8272 96.4662 32.7455 96.7132 32.7455V32.6768V32.608C96.4321 32.608 96.1925 32.7024 95.9987 32.8916L96.0468 32.9408ZM96.7132 32.6768L96.7143 32.7455C96.9535 32.7416 97.1518 32.8155 97.3139 32.9661L97.3607 32.9157L97.4075 32.8653C97.2176 32.6889 96.9842 32.6035 96.7121 32.608L96.7132 32.6768ZM97.3607 32.9157L97.3152 32.9672C97.4796 33.1125 97.5646 33.3032 97.5685 33.5454L97.6373 33.5443L97.7061 33.5432C97.7016 33.2658 97.6022 33.0373 97.4062 32.8641L97.3607 32.9157ZM97.6373 33.5443L97.5685 33.5454C97.5725 33.7956 97.4893 33.9965 97.3201 34.1541L97.367 34.2044L97.4139 34.2547C97.6135 34.0687 97.7106 33.8295 97.7061 33.5432L97.6373 33.5443ZM97.367 34.2044L97.3195 34.1546C97.1527 34.3137 96.9499 34.3934 96.7069 34.3934V34.4622V34.5309C96.9836 34.5309 97.2208 34.4388 97.4145 34.2542L97.367 34.2044ZM96.7069 34.4622L96.7058 34.3934C96.4706 34.3973 96.2692 34.3253 96.098 34.1775L96.0531 34.2296L96.0081 34.2816C96.2058 34.4523 96.4403 34.5354 96.708 34.5309L96.7069 34.4622ZM96.0531 34.2296L96.0986 34.178C95.9345 34.033 95.8515 33.8428 95.8515 33.6009H95.7828H95.714C95.714 33.8787 95.8113 34.1076 96.0075 34.2811L96.0531 34.2296ZM104.024 27.5846L104.092 27.5964L104.106 27.5158H104.024V27.5846ZM103.816 28.7791V28.8479H103.874L103.884 28.7908L103.816 28.7791ZM100.026 28.7791L99.9578 28.7673L99.9438 28.8479H100.026V28.7791ZM100.233 27.5846V27.5158H100.175L100.165 27.5729L100.233 27.5846ZM101.534 25.9124V25.8436H101.476L101.467 25.901L101.534 25.9124ZM103.156 25.9124L103.224 25.924L103.238 25.8436H103.156V25.9124ZM102.044 32.4379L101.976 32.4263L101.975 32.4301L102.044 32.4379ZM102.044 32.8151L101.976 32.8259L101.976 32.8286L102.044 32.8151ZM102.188 33.0602L102.146 33.1146L102.147 33.1156L102.188 33.0602ZM102.546 33.1545L102.55 33.0858L102.548 33.0858L102.546 33.1545ZM102.811 33.142L102.801 33.0738L102.801 33.0739L102.811 33.142ZM103.081 33.1105L103.149 33.1167L103.157 33.0342L103.074 33.0421L103.081 33.1105ZM102.968 34.3679L102.987 34.4339L103.032 34.4209L103.036 34.374L102.968 34.3679ZM102.484 34.4684L102.475 34.4002L102.473 34.4005L102.484 34.4684ZM101.987 34.5062L101.985 34.5749H101.987V34.5062ZM101.031 34.2421L100.992 34.2987L100.993 34.2991L101.031 34.2421ZM100.516 33.5569L100.451 33.5792L100.451 33.5795L100.516 33.5569ZM100.415 32.5573L100.347 32.5459L100.347 32.5512L100.415 32.5573ZM104.024 27.5846L103.956 27.5729L103.749 28.7673L103.816 28.7791L103.884 28.7908L104.092 27.5964L104.024 27.5846ZM103.816 28.7791V28.7103H100.026V28.7791V28.8479H103.816V28.7791ZM100.026 28.7791L100.093 28.7908L100.301 27.5964L100.233 27.5846L100.165 27.5729L99.9578 28.7673L100.026 28.7791ZM100.233 27.5846V27.6534H104.024V27.5846V27.5158H100.233V27.5846ZM101.534 25.9124V25.9812H103.156V25.9124V25.8436H101.534V25.9124ZM103.156 25.9124L103.088 25.9008L101.976 32.4263L102.044 32.4379L102.111 32.4494L103.224 25.924L103.156 25.9124ZM102.044 32.4379L101.975 32.4301C101.958 32.5807 101.958 32.7131 101.976 32.8259L102.044 32.8151L102.111 32.8042C102.096 32.7075 102.096 32.5884 102.112 32.4457L102.044 32.4379ZM102.044 32.8151L101.976 32.8286C102 32.9475 102.056 33.0445 102.146 33.1145L102.188 33.0602L102.23 33.006C102.17 32.9586 102.129 32.8922 102.111 32.8016L102.044 32.8151ZM102.188 33.0602L102.147 33.1156C102.243 33.1863 102.379 33.2189 102.545 33.2233L102.546 33.1545L102.548 33.0858C102.395 33.0818 102.292 33.0515 102.229 33.0049L102.188 33.0602ZM102.546 33.1545L102.543 33.2232C102.636 33.2276 102.728 33.2232 102.82 33.2101L102.811 33.142L102.801 33.0739C102.717 33.0859 102.633 33.0898 102.55 33.0858L102.546 33.1545ZM102.811 33.142L102.82 33.2101C102.911 33.1977 103 33.1873 103.087 33.179L103.081 33.1105L103.074 33.0421C102.985 33.0505 102.894 33.0611 102.801 33.0738L102.811 33.142ZM103.081 33.1105L103.012 33.1044L102.899 34.3617L102.968 34.3679L103.036 34.374L103.149 33.1167L103.081 33.1105ZM102.968 34.3679L102.949 34.3018C102.793 34.3469 102.635 34.3797 102.475 34.4002L102.484 34.4684L102.492 34.5367C102.659 34.5153 102.824 34.481 102.987 34.4339L102.968 34.3679ZM102.484 34.4684L102.473 34.4005C102.313 34.4251 102.151 34.4374 101.987 34.4374V34.5062V34.5749C102.158 34.5749 102.327 34.5621 102.494 34.5364L102.484 34.4684ZM101.987 34.5062L101.988 34.4374C101.608 34.4292 101.303 34.3434 101.07 34.1852L101.031 34.2421L100.993 34.2991C101.254 34.4761 101.586 34.5663 101.985 34.5749L101.987 34.5062ZM101.031 34.2421L101.07 34.1855C100.84 34.0265 100.677 33.8102 100.581 33.5343L100.516 33.5569L100.451 33.5795C100.556 33.8819 100.737 34.1225 100.992 34.2987L101.031 34.2421ZM100.516 33.5569L100.581 33.5346C100.484 33.252 100.451 32.9288 100.484 32.5635L100.415 32.5573L100.347 32.5512C100.313 32.9318 100.347 33.275 100.451 33.5792L100.516 33.5569ZM100.415 32.5573L100.483 32.5687L101.602 25.9238L101.534 25.9124L101.467 25.901L100.347 32.5459L100.415 32.5573ZM106.965 33.054L106.901 33.026L106.898 33.04L106.965 33.054ZM109.342 27.5846V27.5158H109.296L109.279 27.5572L109.342 27.5846ZM111.083 27.5846L111.145 27.6149L111.193 27.5158H111.083V27.5846ZM107.751 34.3867V34.4555H107.794L107.813 34.417L107.751 34.3867ZM106.689 34.3867L106.621 34.3727L106.604 34.4555H106.689V34.3867ZM106.689 27.5846L106.757 27.5762L106.749 27.5158H106.689V27.5846ZM107.386 33.2237L107.455 33.2315L107.456 33.2233L107.455 33.2153L107.386 33.2237ZM107.254 34.3867V34.4555H107.316L107.323 34.3945L107.254 34.3867ZM106.249 34.3867L106.181 34.3988L106.191 34.4555H106.249V34.3867ZM105.035 27.5846V27.5158H104.953L104.968 27.5967L105.035 27.5846ZM106.965 33.054L107.028 33.0814L109.405 27.612L109.342 27.5846L109.279 27.5572L106.902 33.0266L106.965 33.054ZM109.342 27.5846V27.6534H111.083V27.5846V27.5158H109.342V27.5846ZM111.083 27.5846L111.021 27.5544L107.689 34.3565L107.751 34.3867L107.813 34.417L111.145 27.6149L111.083 27.5846ZM107.751 34.3867V34.3179H106.689V34.3867V34.4555H107.751V34.3867ZM106.689 34.3867L106.756 34.4007L107.033 33.0679L106.965 33.054L106.898 33.04L106.621 34.3727L106.689 34.3867ZM106.689 27.5846L106.62 27.5931L107.318 33.2321L107.386 33.2237L107.455 33.2153L106.757 27.5762L106.689 27.5846ZM107.386 33.2237L107.318 33.2159L107.186 34.379L107.254 34.3867L107.323 34.3945L107.455 33.2315L107.386 33.2237ZM107.254 34.3867V34.3179H106.249V34.3867V34.4555H107.254V34.3867ZM106.249 34.3867L106.316 34.3746L105.103 27.5725L105.035 27.5846L104.968 27.5967L106.181 34.3988L106.249 34.3867ZM105.035 27.5846V27.6534H106.689V27.5846V27.5158H105.035V27.5846Z" fill="white" mask="url(#path-6-outside-1_28_675)"/>
<path d="M88.0972 8.02817C88.0972 7.27803 88.7053 6.66992 89.4554 6.66992H107.991C108.741 6.66992 109.349 7.27803 109.349 8.02817V11.0491C109.349 14.8192 106.293 17.8755 102.523 17.8755H89.4554C88.7053 17.8755 88.0972 17.2674 88.0972 16.5172V8.02817Z" fill="url(#paint1_linear_28_675)"/>
<path d="M95.0635 10.3641L95.6529 14.7534H94.319L94.1639 13.5592H92.3027L91.7831 14.7534H90.519L92.2329 10.5812L92.008 10.3641H95.0635ZM93.3496 11.1086L92.6051 12.8147H94.0941L93.8692 11.1086H93.3496ZM101.159 10.3641L100.865 12.7449C100.823 12.8948 100.741 13.0189 100.617 13.1171C100.498 13.2154 100.381 13.2645 100.268 13.2645H97.6618L97.4369 14.7534H96.0255L96.5451 10.5812L96.3202 10.3641H101.159ZM97.9643 11.1086L97.8092 12.52H99.3757L99.6006 11.1086H97.9643ZM106.643 10.3641L106.348 12.7449C106.307 12.8948 106.224 13.0189 106.1 13.1171C105.981 13.2154 105.865 13.2645 105.751 13.2645H103.145L102.92 14.7534H101.509L102.028 10.5812L101.804 10.3641H106.643ZM103.448 11.1086L103.293 12.52H104.859L105.084 11.1086H103.448Z" fill="white"/>
<defs>
<linearGradient id="paint0_linear_28_675" x1="14.1461" y1="0.776308" x2="28.724" y2="32.7236" gradientUnits="userSpaceOnUse">
<stop stop-color="#FFB3E0"/>
<stop offset="1" stop-color="#CD3EFF"/>
</linearGradient>
<linearGradient id="paint1_linear_28_675" x1="96.0039" y1="6.1488" x2="98.9538" y2="18.4095" gradientUnits="userSpaceOnUse">
<stop stop-color="#FF70C6"/>
<stop offset="1" stop-color="#A506DD"/>
</linearGradient>
</defs>
</svg>
